ISO-10303-21;
HEADER;
/* Generated by software containing ST-Developer
 * from STEP Tools, Inc. (www.steptools.com) 
 */
/* OPTION: using custom schema-name function */

FILE_DESCRIPTION(
/* description */ (''),
/* implementation_level */ '2;1');

FILE_NAME(
/* name */ '02_Wall_no_Logo.stp',
/* time_stamp */ '2025-08-11T16:29:34+02:00',
/* author */ (''),
/* organization */ (''),
/* preprocessor_version */ 'ST-DEVELOPER v20',
/* originating_system */ 'SIEMENS PLM Software NX2412.1700',
/* authorisation */ '');

FILE_SCHEMA (('AUTOMOTIVE_DESIGN { 1 0 10303 214 3 1 1 1 }'));
ENDSEC;

DATA;
#10=CONTEXT_DEPENDENT_SHAPE_REPRESENTATION(#18,#34);
#11=CONTEXT_DEPENDENT_SHAPE_REPRESENTATION(#19,#35);
#12=CONTEXT_DEPENDENT_SHAPE_REPRESENTATION(#20,#36);
#13=CONTEXT_DEPENDENT_SHAPE_REPRESENTATION(#21,#37);
#14=NEXT_ASSEMBLY_USAGE_OCCURRENCE('1001',' ','CLIPPERV13_HALB_STP',#39,
#38,$);
#15=NEXT_ASSEMBLY_USAGE_OCCURRENCE('1002',' ','CLIPPERV13_HALB_STP',#39,
#38,$);
#16=NEXT_ASSEMBLY_USAGE_OCCURRENCE('1003',' ','CLIPPERV13_HALB_STP',#39,
#38,$);
#17=NEXT_ASSEMBLY_USAGE_OCCURRENCE('1004',' ','CLIPPERV13_HALB_STP',#39,
#38,$);
#18=(
REPRESENTATION_RELATIONSHIP(' ',' ',#52,#53)
REPRESENTATION_RELATIONSHIP_WITH_TRANSFORMATION(#22)
SHAPE_REPRESENTATION_RELATIONSHIP()
);
#19=(
REPRESENTATION_RELATIONSHIP(' ',' ',#52,#53)
REPRESENTATION_RELATIONSHIP_WITH_TRANSFORMATION(#23)
SHAPE_REPRESENTATION_RELATIONSHIP()
);
#20=(
REPRESENTATION_RELATIONSHIP(' ',' ',#52,#53)
REPRESENTATION_RELATIONSHIP_WITH_TRANSFORMATION(#24)
SHAPE_REPRESENTATION_RELATIONSHIP()
);
#21=(
REPRESENTATION_RELATIONSHIP(' ',' ',#52,#53)
REPRESENTATION_RELATIONSHIP_WITH_TRANSFORMATION(#25)
SHAPE_REPRESENTATION_RELATIONSHIP()
);
#22=ITEM_DEFINED_TRANSFORMATION(' ',' ',#936,#1031);
#23=ITEM_DEFINED_TRANSFORMATION(' ',' ',#936,#1032);
#24=ITEM_DEFINED_TRANSFORMATION(' ',' ',#936,#1033);
#25=ITEM_DEFINED_TRANSFORMATION(' ',' ',#936,#1034);
#26=SHAPE_REPRESENTATION_RELATIONSHIP('MODEL',
'relationship between clipperV13_halb_stp-MODEL and clipperV13_halb_st
p-MODEL',#52,#28);
#27=SHAPE_REPRESENTATION_RELATIONSHIP('None',
'relationship between 02_Wall_no_Logo-None and 02_Wall_no_Logo-None',#53,
#29);
#28=ADVANCED_BREP_SHAPE_REPRESENTATION('clipperV13_halb_stp-MODEL',(#71),
#1643);
#29=ADVANCED_BREP_SHAPE_REPRESENTATION('02_Wall_no_Logo-None',(#70),#1642);
#30=SHAPE_DEFINITION_REPRESENTATION(#32,#52);
#31=SHAPE_DEFINITION_REPRESENTATION(#33,#53);
#32=PRODUCT_DEFINITION_SHAPE('','',#38);
#33=PRODUCT_DEFINITION_SHAPE('','',#39);
#34=PRODUCT_DEFINITION_SHAPE(' ','NAUO PRDDFN',#14);
#35=PRODUCT_DEFINITION_SHAPE(' ','NAUO PRDDFN',#15);
#36=PRODUCT_DEFINITION_SHAPE(' ','NAUO PRDDFN',#16);
#37=PRODUCT_DEFINITION_SHAPE(' ','NAUO PRDDFN',#17);
#38=PRODUCT_DEFINITION(' ','',#42,#40);
#39=PRODUCT_DEFINITION(' ','',#43,#41);
#40=PRODUCT_DEFINITION_CONTEXT('part definition',#51,'design');
#41=PRODUCT_DEFINITION_CONTEXT('part definition',#51,'design');
#42=PRODUCT_DEFINITION_FORMATION_WITH_SPECIFIED_SOURCE(' ',' ',#46,
 .NOT_KNOWN.);
#43=PRODUCT_DEFINITION_FORMATION_WITH_SPECIFIED_SOURCE(' ',' ',#47,
 .NOT_KNOWN.);
#44=PRODUCT_RELATED_PRODUCT_CATEGORY('part','',(#46));
#45=PRODUCT_RELATED_PRODUCT_CATEGORY('part','',(#47));
#46=PRODUCT('clipperV13_halb_stp','clipperV13_halb_stp',' ',(#48));
#47=PRODUCT('02_Wall_no_Logo','02_Wall_no_Logo',' ',(#49));
#48=PRODUCT_CONTEXT(' ',#51,'mechanical');
#49=PRODUCT_CONTEXT(' ',#51,'mechanical');
#50=APPLICATION_PROTOCOL_DEFINITION('international standard',
'automotive_design',2010,#51);
#51=APPLICATION_CONTEXT(
'core data for automotive mechanical design processes');
#52=SHAPE_REPRESENTATION('clipperV13_halb_stp-MODEL',(#936),#1643);
#53=SHAPE_REPRESENTATION('02_Wall_no_Logo-None',(#936,#1031,#1032,#1033,
#1034),#1642);
#54=PRESENTATION_LAYER_ASSIGNMENT('1','Layer 1',(#70,#71));
#55=STYLED_ITEM('',(#57),#70);
#56=STYLED_ITEM('',(#58),#71);
#57=PRESENTATION_STYLE_ASSIGNMENT((#59));
#58=PRESENTATION_STYLE_ASSIGNMENT((#60));
#59=SURFACE_STYLE_USAGE(.BOTH.,#61);
#60=SURFACE_STYLE_USAGE(.BOTH.,#62);
#61=SURFACE_SIDE_STYLE('',(#63));
#62=SURFACE_SIDE_STYLE('',(#64));
#63=SURFACE_STYLE_FILL_AREA(#65);
#64=SURFACE_STYLE_FILL_AREA(#66);
#65=FILL_AREA_STYLE('',(#67));
#66=FILL_AREA_STYLE('',(#68));
#67=FILL_AREA_STYLE_COLOUR('',#69);
#68=FILL_AREA_STYLE_COLOUR('',#69);
#69=COLOUR_RGB('medium steel',0.611764705882353,0.658823529411765,0.670588235294118);
#70=MANIFOLD_SOLID_BREP('',#72);
#71=MANIFOLD_SOLID_BREP('',#73);
#72=CLOSED_SHELL('',(#148,#149,#150,#151,#152,#153,#154,#155,#156,#157,
#158,#159,#160,#161,#162,#163,#164,#165,#166,#167,#168,#169,#170,#171));
#73=CLOSED_SHELL('',(#172,#173,#174,#175,#176,#177,#178,#179,#180,#181,
#182,#183,#184,#185,#186,#187,#188,#189,#190,#191,#192,#193,#194,#195,#196,
#197));
#74=TOROIDAL_SURFACE('',#977,0.3,0.2);
#75=TOROIDAL_SURFACE('',#981,0.3,0.2);
#76=TOROIDAL_SURFACE('',#984,0.3,0.2);
#77=TOROIDAL_SURFACE('',#988,0.3,0.2);
#78=(
BOUNDED_SURFACE()
B_SPLINE_SURFACE(3,2,((#1405,#1406,#1407),(#1408,#1409,#1410),(#1411,#1412,
#1413),(#1414,#1415,#1416),(#1417,#1418,#1419),(#1420,#1421,#1422)),
 .UNSPECIFIED.,.F.,.F.,.F.)
B_SPLINE_SURFACE_WITH_KNOTS((4,2,4),(3,3),(0.,0.5,1.),(0.,1.),
 .UNSPECIFIED.)
GEOMETRIC_REPRESENTATION_ITEM()
RATIONAL_B_SPLINE_SURFACE(((1.,0.707106781186541,1.),(1.,0.704674679133976,
1.),(1.,0.790450772383263,1.),(1.,0.941600035185592,1.),(1.,1.0026757383406,
1.),(1.,1.,1.)))
REPRESENTATION_ITEM('')
SURFACE()
);
#79=(
BOUNDED_SURFACE()
B_SPLINE_SURFACE(3,2,((#1429,#1430,#1431),(#1432,#1433,#1434),(#1435,#1436,
#1437),(#1438,#1439,#1440),(#1441,#1442,#1443),(#1444,#1445,#1446)),
 .UNSPECIFIED.,.F.,.F.,.F.)
B_SPLINE_SURFACE_WITH_KNOTS((4,2,4),(3,3),(0.,0.5,1.),(0.,1.),
 .UNSPECIFIED.)
GEOMETRIC_REPRESENTATION_ITEM()
RATIONAL_B_SPLINE_SURFACE(((1.,1.,1.),(1.,1.00267573834065,1.),(1.,0.941600035185533,
1.),(1.,0.790450772383351,1.),(1.,0.704674679133938,1.),(1.,0.707106781186556,
1.)))
REPRESENTATION_ITEM('')
SURFACE()
);
#80=(
BOUNDED_SURFACE()
B_SPLINE_SURFACE(3,2,((#1448,#1449,#1450),(#1451,#1452,#1453),(#1454,#1455,
#1456),(#1457,#1458,#1459),(#1460,#1461,#1462),(#1463,#1464,#1465)),
 .UNSPECIFIED.,.F.,.F.,.F.)
B_SPLINE_SURFACE_WITH_KNOTS((4,2,4),(3,3),(0.,0.5,1.),(0.,1.),
 .UNSPECIFIED.)
GEOMETRIC_REPRESENTATION_ITEM()
RATIONAL_B_SPLINE_SURFACE(((1.,0.707106781186545,1.),(1.,0.704674679134045,
1.),(1.,0.790450772383216,1.),(1.,0.941600035185663,1.),(1.,1.00267573834055,
1.),(1.,1.,1.)))
REPRESENTATION_ITEM('')
SURFACE()
);
#81=(
BOUNDED_SURFACE()
B_SPLINE_SURFACE(3,2,((#1472,#1473,#1474),(#1475,#1476,#1477),(#1478,#1479,
#1480),(#1481,#1482,#1483),(#1484,#1485,#1486),(#1487,#1488,#1489)),
 .UNSPECIFIED.,.F.,.F.,.F.)
B_SPLINE_SURFACE_WITH_KNOTS((4,2,4),(3,3),(0.,0.5,1.),(0.,1.),
 .UNSPECIFIED.)
GEOMETRIC_REPRESENTATION_ITEM()
RATIONAL_B_SPLINE_SURFACE(((1.,0.707106781186548,1.),(1.,0.704674679133886,
1.),(1.,0.790450772383427,1.),(1.,0.941600035185457,1.),(1.,1.0026757383407,
1.),(1.,1.,1.)))
REPRESENTATION_ITEM('')
SURFACE()
);
#82=CYLINDRICAL_SURFACE('',#953,0.5);
#83=CYLINDRICAL_SURFACE('',#958,0.5);
#84=CYLINDRICAL_SURFACE('',#960,0.5);
#85=CYLINDRICAL_SURFACE('',#962,0.5);
#86=CYLINDRICAL_SURFACE('',#965,0.5);
#87=CYLINDRICAL_SURFACE('',#967,0.5);
#88=CYLINDRICAL_SURFACE('',#972,0.5);
#89=CYLINDRICAL_SURFACE('',#974,0.5);
#90=CYLINDRICAL_SURFACE('',#979,0.2);
#91=CYLINDRICAL_SURFACE('',#986,0.2);
#92=CYLINDRICAL_SURFACE('',#991,1.15);
#93=CYLINDRICAL_SURFACE('',#994,1.15);
#94=CYLINDRICAL_SURFACE('',#997,0.5);
#95=CYLINDRICAL_SURFACE('',#1000,0.5);
#96=CYLINDRICAL_SURFACE('',#1010,1.15);
#97=CYLINDRICAL_SURFACE('',#1013,1.15);
#98=CYLINDRICAL_SURFACE('',#1016,0.5);
#99=CYLINDRICAL_SURFACE('',#1019,0.5);
#100=CIRCLE('',#945,0.3);
#101=CIRCLE('',#946,0.3);
#102=CIRCLE('',#948,0.3);
#103=CIRCLE('',#949,0.3);
#104=CIRCLE('',#955,0.5);
#105=CIRCLE('',#956,0.5);
#106=CIRCLE('',#968,0.5);
#107=CIRCLE('',#971,0.5);
#108=CIRCLE('',#975,0.2);
#109=CIRCLE('',#976,0.2);
#110=CIRCLE('',#978,0.2);
#111=CIRCLE('',#980,0.2);
#112=CIRCLE('',#982,0.2);
#113=CIRCLE('',#983,0.2);
#114=CIRCLE('',#985,0.2);
#115=CIRCLE('',#987,0.2);
#116=CIRCLE('',#989,1.15);
#117=CIRCLE('',#990,1.15);
#118=CIRCLE('',#992,1.15);
#119=CIRCLE('',#993,1.15);
#120=CIRCLE('',#995,0.5);
#121=CIRCLE('',#996,0.5);
#122=CIRCLE('',#998,0.5);
#123=CIRCLE('',#999,0.5);
#124=CIRCLE('',#1008,1.15);
#125=CIRCLE('',#1009,1.15);
#126=CIRCLE('',#1011,1.15);
#127=CIRCLE('',#1012,1.15);
#128=CIRCLE('',#1014,0.5);
#129=CIRCLE('',#1015,0.5);
#130=CIRCLE('',#1017,0.5);
#131=CIRCLE('',#1018,0.5);
#132=ELLIPSE('',#938,0.710418702713033,0.5);
#133=ELLIPSE('',#939,0.710418702713033,0.5);
#134=ELLIPSE('',#940,0.710418702713035,0.5);
#135=ELLIPSE('',#941,0.710418702713035,0.5);
#136=ELLIPSE('',#951,0.583095189484531,0.5);
#137=ELLIPSE('',#952,0.707106781186547,0.5);
#138=ELLIPSE('',#954,0.58309518948453,0.5);
#139=ELLIPSE('',#957,0.583095189484529,0.5);
#140=ELLIPSE('',#959,0.707106781186547,0.5);
#141=ELLIPSE('',#961,0.583095189484531,0.5);
#142=ELLIPSE('',#963,0.58309518948453,0.5);
#143=ELLIPSE('',#964,0.707106781186547,0.5);
#144=ELLIPSE('',#966,0.707106781186547,0.5);
#145=ELLIPSE('',#969,0.58309518948453,0.5);
#146=ELLIPSE('',#970,0.583095189484531,0.5);
#147=ELLIPSE('',#973,0.58309518948453,0.5);
#148=ADVANCED_FACE('',(#222),#198,.T.);
#149=ADVANCED_FACE('',(#223),#199,.T.);
#150=ADVANCED_FACE('',(#224),#200,.T.);
#151=ADVANCED_FACE('',(#225),#201,.T.);
#152=ADVANCED_FACE('',(#226),#202,.F.);
#153=ADVANCED_FACE('',(#227),#203,.T.);
#154=ADVANCED_FACE('',(#228),#82,.T.);
#155=ADVANCED_FACE('',(#229),#83,.T.);
#156=ADVANCED_FACE('',(#230),#84,.T.);
#157=ADVANCED_FACE('',(#231),#85,.T.);
#158=ADVANCED_FACE('',(#232),#86,.T.);
#159=ADVANCED_FACE('',(#233),#87,.T.);
#160=ADVANCED_FACE('',(#234),#88,.T.);
#161=ADVANCED_FACE('',(#235),#89,.T.);
#162=ADVANCED_FACE('',(#236),#78,.T.);
#163=ADVANCED_FACE('',(#237),#74,.T.);
#164=ADVANCED_FACE('',(#238),#90,.T.);
#165=ADVANCED_FACE('',(#239),#75,.T.);
#166=ADVANCED_FACE('',(#240),#79,.T.);
#167=ADVANCED_FACE('',(#241),#80,.T.);
#168=ADVANCED_FACE('',(#242),#76,.T.);
#169=ADVANCED_FACE('',(#243),#91,.T.);
#170=ADVANCED_FACE('',(#244),#77,.T.);
#171=ADVANCED_FACE('',(#245),#81,.T.);
#172=ADVANCED_FACE('',(#246),#92,.F.);
#173=ADVANCED_FACE('',(#247),#93,.F.);
#174=ADVANCED_FACE('',(#248),#94,.T.);
#175=ADVANCED_FACE('',(#249),#95,.T.);
#176=ADVANCED_FACE('',(#250),#204,.T.);
#177=ADVANCED_FACE('',(#251),#205,.T.);
#178=ADVANCED_FACE('',(#252),#206,.T.);
#179=ADVANCED_FACE('',(#253),#207,.T.);
#180=ADVANCED_FACE('',(#254),#208,.T.);
#181=ADVANCED_FACE('',(#255),#209,.T.);
#182=ADVANCED_FACE('',(#256),#210,.T.);
#183=ADVANCED_FACE('',(#257),#96,.F.);
#184=ADVANCED_FACE('',(#258),#97,.F.);
#185=ADVANCED_FACE('',(#259),#98,.T.);
#186=ADVANCED_FACE('',(#260),#99,.T.);
#187=ADVANCED_FACE('',(#261),#211,.F.);
#188=ADVANCED_FACE('',(#262),#212,.T.);
#189=ADVANCED_FACE('',(#263),#213,.F.);
#190=ADVANCED_FACE('',(#264),#214,.F.);
#191=ADVANCED_FACE('',(#265),#215,.F.);
#192=ADVANCED_FACE('',(#266),#216,.F.);
#193=ADVANCED_FACE('',(#267),#217,.F.);
#194=ADVANCED_FACE('',(#268),#218,.F.);
#195=ADVANCED_FACE('',(#269),#219,.F.);
#196=ADVANCED_FACE('',(#270),#220,.F.);
#197=ADVANCED_FACE('',(#271),#221,.F.);
#198=PLANE('',#937);
#199=PLANE('',#942);
#200=PLANE('',#943);
#201=PLANE('',#944);
#202=PLANE('',#947);
#203=PLANE('',#950);
#204=PLANE('',#1001);
#205=PLANE('',#1002);
#206=PLANE('',#1003);
#207=PLANE('',#1004);
#208=PLANE('',#1005);
#209=PLANE('',#1006);
#210=PLANE('',#1007);
#211=PLANE('',#1020);
#212=PLANE('',#1021);
#213=PLANE('',#1022);
#214=PLANE('',#1023);
#215=PLANE('',#1024);
#216=PLANE('',#1025);
#217=PLANE('',#1026);
#218=PLANE('',#1027);
#219=PLANE('',#1028);
#220=PLANE('',#1029);
#221=PLANE('',#1030);
#222=FACE_OUTER_BOUND('',#272,.T.);
#223=FACE_OUTER_BOUND('',#273,.T.);
#224=FACE_OUTER_BOUND('',#274,.T.);
#225=FACE_OUTER_BOUND('',#275,.T.);
#226=FACE_OUTER_BOUND('',#276,.T.);
#227=FACE_OUTER_BOUND('',#277,.T.);
#228=FACE_OUTER_BOUND('',#278,.T.);
#229=FACE_OUTER_BOUND('',#279,.T.);
#230=FACE_OUTER_BOUND('',#280,.T.);
#231=FACE_OUTER_BOUND('',#281,.T.);
#232=FACE_OUTER_BOUND('',#282,.T.);
#233=FACE_OUTER_BOUND('',#283,.T.);
#234=FACE_OUTER_BOUND('',#284,.T.);
#235=FACE_OUTER_BOUND('',#285,.T.);
#236=FACE_OUTER_BOUND('',#286,.T.);
#237=FACE_OUTER_BOUND('',#287,.T.);
#238=FACE_OUTER_BOUND('',#288,.T.);
#239=FACE_OUTER_BOUND('',#289,.T.);
#240=FACE_OUTER_BOUND('',#290,.T.);
#241=FACE_OUTER_BOUND('',#291,.T.);
#242=FACE_OUTER_BOUND('',#292,.T.);
#243=FACE_OUTER_BOUND('',#293,.T.);
#244=FACE_OUTER_BOUND('',#294,.T.);
#245=FACE_OUTER_BOUND('',#295,.T.);
#246=FACE_OUTER_BOUND('',#296,.T.);
#247=FACE_OUTER_BOUND('',#297,.T.);
#248=FACE_OUTER_BOUND('',#298,.T.);
#249=FACE_OUTER_BOUND('',#299,.T.);
#250=FACE_OUTER_BOUND('',#300,.T.);
#251=FACE_OUTER_BOUND('',#301,.T.);
#252=FACE_OUTER_BOUND('',#302,.T.);
#253=FACE_OUTER_BOUND('',#303,.T.);
#254=FACE_OUTER_BOUND('',#304,.T.);
#255=FACE_OUTER_BOUND('',#305,.T.);
#256=FACE_OUTER_BOUND('',#306,.T.);
#257=FACE_OUTER_BOUND('',#307,.T.);
#258=FACE_OUTER_BOUND('',#308,.T.);
#259=FACE_OUTER_BOUND('',#309,.T.);
#260=FACE_OUTER_BOUND('',#310,.T.);
#261=FACE_OUTER_BOUND('',#311,.T.);
#262=FACE_OUTER_BOUND('',#312,.T.);
#263=FACE_OUTER_BOUND('',#313,.T.);
#264=FACE_OUTER_BOUND('',#314,.T.);
#265=FACE_OUTER_BOUND('',#315,.T.);
#266=FACE_OUTER_BOUND('',#316,.T.);
#267=FACE_OUTER_BOUND('',#317,.T.);
#268=FACE_OUTER_BOUND('',#318,.T.);
#269=FACE_OUTER_BOUND('',#319,.T.);
#270=FACE_OUTER_BOUND('',#320,.T.);
#271=FACE_OUTER_BOUND('',#321,.T.);
#272=EDGE_LOOP('',(#322,#323,#324,#325));
#273=EDGE_LOOP('',(#326,#327,#328,#329,#330,#331,#332,#333));
#274=EDGE_LOOP('',(#334,#335,#336,#337));
#275=EDGE_LOOP('',(#338,#339,#340,#341));
#276=EDGE_LOOP('',(#342,#343,#344,#345,#346,#347));
#277=EDGE_LOOP('',(#348,#349,#350,#351,#352,#353));
#278=EDGE_LOOP('',(#354,#355,#356,#357,#358));
#279=EDGE_LOOP('',(#359,#360,#361,#362,#363,#364));
#280=EDGE_LOOP('',(#365,#366,#367,#368));
#281=EDGE_LOOP('',(#369,#370,#371,#372,#373));
#282=EDGE_LOOP('',(#374,#375,#376,#377,#378));
#283=EDGE_LOOP('',(#379,#380,#381,#382));
#284=EDGE_LOOP('',(#383,#384,#385,#386,#387,#388));
#285=EDGE_LOOP('',(#389,#390,#391,#392,#393));
#286=EDGE_LOOP('',(#394,#395,#396));
#287=EDGE_LOOP('',(#397,#398,#399,#400));
#288=EDGE_LOOP('',(#401,#402,#403,#404));
#289=EDGE_LOOP('',(#405,#406,#407,#408));
#290=EDGE_LOOP('',(#409,#410,#411));
#291=EDGE_LOOP('',(#412,#413,#414));
#292=EDGE_LOOP('',(#415,#416,#417,#418));
#293=EDGE_LOOP('',(#419,#420,#421,#422));
#294=EDGE_LOOP('',(#423,#424,#425,#426));
#295=EDGE_LOOP('',(#427,#428,#429));
#296=EDGE_LOOP('',(#430,#431,#432,#433));
#297=EDGE_LOOP('',(#434,#435,#436,#437));
#298=EDGE_LOOP('',(#438,#439,#440,#441));
#299=EDGE_LOOP('',(#442,#443,#444,#445));
#300=EDGE_LOOP('',(#446,#447,#448,#449));
#301=EDGE_LOOP('',(#450,#451,#452,#453));
#302=EDGE_LOOP('',(#454,#455,#456,#457));
#303=EDGE_LOOP('',(#458,#459,#460,#461));
#304=EDGE_LOOP('',(#462,#463,#464,#465));
#305=EDGE_LOOP('',(#466,#467,#468,#469));
#306=EDGE_LOOP('',(#470,#471,#472,#473));
#307=EDGE_LOOP('',(#474,#475,#476,#477));
#308=EDGE_LOOP('',(#478,#479,#480,#481));
#309=EDGE_LOOP('',(#482,#483,#484,#485));
#310=EDGE_LOOP('',(#486,#487,#488,#489));
#311=EDGE_LOOP('',(#490,#491,#492,#493,#494,#495,#496,#497,#498,#499,#500,
#501,#502,#503,#504,#505,#506,#507,#508,#509,#510,#511,#512,#513));
#312=EDGE_LOOP('',(#514,#515,#516,#517,#518,#519,#520,#521,#522,#523,#524,
#525,#526,#527,#528,#529,#530,#531,#532,#533,#534,#535,#536,#537));
#313=EDGE_LOOP('',(#538,#539,#540,#541));
#314=EDGE_LOOP('',(#542,#543,#544,#545));
#315=EDGE_LOOP('',(#546,#547,#548,#549));
#316=EDGE_LOOP('',(#550,#551,#552,#553));
#317=EDGE_LOOP('',(#554,#555,#556,#557));
#318=EDGE_LOOP('',(#558,#559,#560,#561));
#319=EDGE_LOOP('',(#562,#563,#564,#565));
#320=EDGE_LOOP('',(#566,#567,#568,#569));
#321=EDGE_LOOP('',(#570,#571,#572,#573));
#322=ORIENTED_EDGE('',*,*,#654,.T.);
#323=ORIENTED_EDGE('',*,*,#655,.T.);
#324=ORIENTED_EDGE('',*,*,#656,.T.);
#325=ORIENTED_EDGE('',*,*,#657,.T.);
#326=ORIENTED_EDGE('',*,*,#658,.F.);
#327=ORIENTED_EDGE('',*,*,#659,.T.);
#328=ORIENTED_EDGE('',*,*,#660,.T.);
#329=ORIENTED_EDGE('',*,*,#661,.T.);
#330=ORIENTED_EDGE('',*,*,#662,.T.);
#331=ORIENTED_EDGE('',*,*,#663,.T.);
#332=ORIENTED_EDGE('',*,*,#664,.T.);
#333=ORIENTED_EDGE('',*,*,#665,.T.);
#334=ORIENTED_EDGE('',*,*,#666,.T.);
#335=ORIENTED_EDGE('',*,*,#667,.T.);
#336=ORIENTED_EDGE('',*,*,#668,.T.);
#337=ORIENTED_EDGE('',*,*,#669,.T.);
#338=ORIENTED_EDGE('',*,*,#670,.T.);
#339=ORIENTED_EDGE('',*,*,#671,.T.);
#340=ORIENTED_EDGE('',*,*,#672,.T.);
#341=ORIENTED_EDGE('',*,*,#673,.T.);
#342=ORIENTED_EDGE('',*,*,#674,.T.);
#343=ORIENTED_EDGE('',*,*,#675,.T.);
#344=ORIENTED_EDGE('',*,*,#676,.T.);
#345=ORIENTED_EDGE('',*,*,#662,.F.);
#346=ORIENTED_EDGE('',*,*,#677,.T.);
#347=ORIENTED_EDGE('',*,*,#678,.T.);
#348=ORIENTED_EDGE('',*,*,#679,.T.);
#349=ORIENTED_EDGE('',*,*,#680,.T.);
#350=ORIENTED_EDGE('',*,*,#681,.T.);
#351=ORIENTED_EDGE('',*,*,#682,.T.);
#352=ORIENTED_EDGE('',*,*,#683,.T.);
#353=ORIENTED_EDGE('',*,*,#658,.T.);
#354=ORIENTED_EDGE('',*,*,#654,.F.);
#355=ORIENTED_EDGE('',*,*,#684,.T.);
#356=ORIENTED_EDGE('',*,*,#677,.F.);
#357=ORIENTED_EDGE('',*,*,#661,.F.);
#358=ORIENTED_EDGE('',*,*,#685,.F.);
#359=ORIENTED_EDGE('',*,*,#657,.F.);
#360=ORIENTED_EDGE('',*,*,#686,.T.);
#361=ORIENTED_EDGE('',*,*,#687,.T.);
#362=ORIENTED_EDGE('',*,*,#670,.F.);
#363=ORIENTED_EDGE('',*,*,#688,.T.);
#364=ORIENTED_EDGE('',*,*,#689,.T.);
#365=ORIENTED_EDGE('',*,*,#685,.T.);
#366=ORIENTED_EDGE('',*,*,#660,.F.);
#367=ORIENTED_EDGE('',*,*,#690,.F.);
#368=ORIENTED_EDGE('',*,*,#655,.F.);
#369=ORIENTED_EDGE('',*,*,#683,.F.);
#370=ORIENTED_EDGE('',*,*,#691,.T.);
#371=ORIENTED_EDGE('',*,*,#656,.F.);
#372=ORIENTED_EDGE('',*,*,#690,.T.);
#373=ORIENTED_EDGE('',*,*,#659,.F.);
#374=ORIENTED_EDGE('',*,*,#666,.F.);
#375=ORIENTED_EDGE('',*,*,#692,.T.);
#376=ORIENTED_EDGE('',*,*,#679,.F.);
#377=ORIENTED_EDGE('',*,*,#665,.F.);
#378=ORIENTED_EDGE('',*,*,#693,.F.);
#379=ORIENTED_EDGE('',*,*,#693,.T.);
#380=ORIENTED_EDGE('',*,*,#664,.F.);
#381=ORIENTED_EDGE('',*,*,#694,.F.);
#382=ORIENTED_EDGE('',*,*,#667,.F.);
#383=ORIENTED_EDGE('',*,*,#695,.T.);
#384=ORIENTED_EDGE('',*,*,#696,.T.);
#385=ORIENTED_EDGE('',*,*,#669,.F.);
#386=ORIENTED_EDGE('',*,*,#697,.T.);
#387=ORIENTED_EDGE('',*,*,#698,.T.);
#388=ORIENTED_EDGE('',*,*,#672,.F.);
#389=ORIENTED_EDGE('',*,*,#676,.F.);
#390=ORIENTED_EDGE('',*,*,#699,.T.);
#391=ORIENTED_EDGE('',*,*,#668,.F.);
#392=ORIENTED_EDGE('',*,*,#694,.T.);
#393=ORIENTED_EDGE('',*,*,#663,.F.);
#394=ORIENTED_EDGE('',*,*,#686,.F.);
#395=ORIENTED_EDGE('',*,*,#691,.F.);
#396=ORIENTED_EDGE('',*,*,#700,.F.);
#397=ORIENTED_EDGE('',*,*,#700,.T.);
#398=ORIENTED_EDGE('',*,*,#682,.F.);
#399=ORIENTED_EDGE('',*,*,#701,.F.);
#400=ORIENTED_EDGE('',*,*,#687,.F.);
#401=ORIENTED_EDGE('',*,*,#701,.T.);
#402=ORIENTED_EDGE('',*,*,#681,.F.);
#403=ORIENTED_EDGE('',*,*,#702,.F.);
#404=ORIENTED_EDGE('',*,*,#671,.F.);
#405=ORIENTED_EDGE('',*,*,#702,.T.);
#406=ORIENTED_EDGE('',*,*,#680,.F.);
#407=ORIENTED_EDGE('',*,*,#703,.F.);
#408=ORIENTED_EDGE('',*,*,#695,.F.);
#409=ORIENTED_EDGE('',*,*,#703,.T.);
#410=ORIENTED_EDGE('',*,*,#692,.F.);
#411=ORIENTED_EDGE('',*,*,#696,.F.);
#412=ORIENTED_EDGE('',*,*,#684,.F.);
#413=ORIENTED_EDGE('',*,*,#689,.F.);
#414=ORIENTED_EDGE('',*,*,#704,.F.);
#415=ORIENTED_EDGE('',*,*,#704,.T.);
#416=ORIENTED_EDGE('',*,*,#688,.F.);
#417=ORIENTED_EDGE('',*,*,#705,.F.);
#418=ORIENTED_EDGE('',*,*,#678,.F.);
#419=ORIENTED_EDGE('',*,*,#705,.T.);
#420=ORIENTED_EDGE('',*,*,#673,.F.);
#421=ORIENTED_EDGE('',*,*,#706,.F.);
#422=ORIENTED_EDGE('',*,*,#674,.F.);
#423=ORIENTED_EDGE('',*,*,#706,.T.);
#424=ORIENTED_EDGE('',*,*,#698,.F.);
#425=ORIENTED_EDGE('',*,*,#707,.F.);
#426=ORIENTED_EDGE('',*,*,#675,.F.);
#427=ORIENTED_EDGE('',*,*,#707,.T.);
#428=ORIENTED_EDGE('',*,*,#697,.F.);
#429=ORIENTED_EDGE('',*,*,#699,.F.);
#430=ORIENTED_EDGE('',*,*,#708,.F.);
#431=ORIENTED_EDGE('',*,*,#709,.F.);
#432=ORIENTED_EDGE('',*,*,#710,.F.);
#433=ORIENTED_EDGE('',*,*,#711,.F.);
#434=ORIENTED_EDGE('',*,*,#712,.F.);
#435=ORIENTED_EDGE('',*,*,#713,.F.);
#436=ORIENTED_EDGE('',*,*,#714,.F.);
#437=ORIENTED_EDGE('',*,*,#715,.F.);
#438=ORIENTED_EDGE('',*,*,#716,.F.);
#439=ORIENTED_EDGE('',*,*,#717,.F.);
#440=ORIENTED_EDGE('',*,*,#718,.F.);
#441=ORIENTED_EDGE('',*,*,#719,.F.);
#442=ORIENTED_EDGE('',*,*,#720,.F.);
#443=ORIENTED_EDGE('',*,*,#721,.F.);
#444=ORIENTED_EDGE('',*,*,#722,.F.);
#445=ORIENTED_EDGE('',*,*,#723,.F.);
#446=ORIENTED_EDGE('',*,*,#724,.F.);
#447=ORIENTED_EDGE('',*,*,#717,.T.);
#448=ORIENTED_EDGE('',*,*,#725,.T.);
#449=ORIENTED_EDGE('',*,*,#726,.T.);
#450=ORIENTED_EDGE('',*,*,#727,.F.);
#451=ORIENTED_EDGE('',*,*,#721,.T.);
#452=ORIENTED_EDGE('',*,*,#728,.T.);
#453=ORIENTED_EDGE('',*,*,#719,.T.);
#454=ORIENTED_EDGE('',*,*,#729,.T.);
#455=ORIENTED_EDGE('',*,*,#723,.T.);
#456=ORIENTED_EDGE('',*,*,#730,.F.);
#457=ORIENTED_EDGE('',*,*,#731,.F.);
#458=ORIENTED_EDGE('',*,*,#732,.F.);
#459=ORIENTED_EDGE('',*,*,#709,.T.);
#460=ORIENTED_EDGE('',*,*,#733,.T.);
#461=ORIENTED_EDGE('',*,*,#731,.T.);
#462=ORIENTED_EDGE('',*,*,#734,.F.);
#463=ORIENTED_EDGE('',*,*,#713,.T.);
#464=ORIENTED_EDGE('',*,*,#735,.T.);
#465=ORIENTED_EDGE('',*,*,#711,.T.);
#466=ORIENTED_EDGE('',*,*,#736,.T.);
#467=ORIENTED_EDGE('',*,*,#715,.T.);
#468=ORIENTED_EDGE('',*,*,#737,.F.);
#469=ORIENTED_EDGE('',*,*,#738,.F.);
#470=ORIENTED_EDGE('',*,*,#739,.F.);
#471=ORIENTED_EDGE('',*,*,#726,.F.);
#472=ORIENTED_EDGE('',*,*,#740,.T.);
#473=ORIENTED_EDGE('',*,*,#741,.T.);
#474=ORIENTED_EDGE('',*,*,#742,.T.);
#475=ORIENTED_EDGE('',*,*,#743,.T.);
#476=ORIENTED_EDGE('',*,*,#744,.T.);
#477=ORIENTED_EDGE('',*,*,#745,.T.);
#478=ORIENTED_EDGE('',*,*,#746,.T.);
#479=ORIENTED_EDGE('',*,*,#747,.T.);
#480=ORIENTED_EDGE('',*,*,#748,.T.);
#481=ORIENTED_EDGE('',*,*,#749,.T.);
#482=ORIENTED_EDGE('',*,*,#750,.T.);
#483=ORIENTED_EDGE('',*,*,#751,.T.);
#484=ORIENTED_EDGE('',*,*,#752,.T.);
#485=ORIENTED_EDGE('',*,*,#753,.T.);
#486=ORIENTED_EDGE('',*,*,#754,.T.);
#487=ORIENTED_EDGE('',*,*,#755,.T.);
#488=ORIENTED_EDGE('',*,*,#756,.T.);
#489=ORIENTED_EDGE('',*,*,#757,.T.);
#490=ORIENTED_EDGE('',*,*,#758,.F.);
#491=ORIENTED_EDGE('',*,*,#756,.F.);
#492=ORIENTED_EDGE('',*,*,#759,.F.);
#493=ORIENTED_EDGE('',*,*,#760,.F.);
#494=ORIENTED_EDGE('',*,*,#744,.F.);
#495=ORIENTED_EDGE('',*,*,#761,.F.);
#496=ORIENTED_EDGE('',*,*,#748,.F.);
#497=ORIENTED_EDGE('',*,*,#762,.F.);
#498=ORIENTED_EDGE('',*,*,#763,.T.);
#499=ORIENTED_EDGE('',*,*,#737,.T.);
#500=ORIENTED_EDGE('',*,*,#714,.T.);
#501=ORIENTED_EDGE('',*,*,#734,.T.);
#502=ORIENTED_EDGE('',*,*,#710,.T.);
#503=ORIENTED_EDGE('',*,*,#732,.T.);
#504=ORIENTED_EDGE('',*,*,#730,.T.);
#505=ORIENTED_EDGE('',*,*,#722,.T.);
#506=ORIENTED_EDGE('',*,*,#727,.T.);
#507=ORIENTED_EDGE('',*,*,#718,.T.);
#508=ORIENTED_EDGE('',*,*,#724,.T.);
#509=ORIENTED_EDGE('',*,*,#739,.T.);
#510=ORIENTED_EDGE('',*,*,#764,.T.);
#511=ORIENTED_EDGE('',*,*,#765,.F.);
#512=ORIENTED_EDGE('',*,*,#766,.F.);
#513=ORIENTED_EDGE('',*,*,#752,.F.);
#514=ORIENTED_EDGE('',*,*,#767,.T.);
#515=ORIENTED_EDGE('',*,*,#754,.F.);
#516=ORIENTED_EDGE('',*,*,#768,.T.);
#517=ORIENTED_EDGE('',*,*,#750,.F.);
#518=ORIENTED_EDGE('',*,*,#769,.T.);
#519=ORIENTED_EDGE('',*,*,#770,.T.);
#520=ORIENTED_EDGE('',*,*,#771,.F.);
#521=ORIENTED_EDGE('',*,*,#740,.F.);
#522=ORIENTED_EDGE('',*,*,#725,.F.);
#523=ORIENTED_EDGE('',*,*,#716,.T.);
#524=ORIENTED_EDGE('',*,*,#728,.F.);
#525=ORIENTED_EDGE('',*,*,#720,.T.);
#526=ORIENTED_EDGE('',*,*,#729,.F.);
#527=ORIENTED_EDGE('',*,*,#733,.F.);
#528=ORIENTED_EDGE('',*,*,#708,.T.);
#529=ORIENTED_EDGE('',*,*,#735,.F.);
#530=ORIENTED_EDGE('',*,*,#712,.T.);
#531=ORIENTED_EDGE('',*,*,#736,.F.);
#532=ORIENTED_EDGE('',*,*,#772,.F.);
#533=ORIENTED_EDGE('',*,*,#773,.T.);
#534=ORIENTED_EDGE('',*,*,#746,.F.);
#535=ORIENTED_EDGE('',*,*,#774,.T.);
#536=ORIENTED_EDGE('',*,*,#742,.F.);
#537=ORIENTED_EDGE('',*,*,#775,.T.);
#538=ORIENTED_EDGE('',*,*,#769,.F.);
#539=ORIENTED_EDGE('',*,*,#753,.F.);
#540=ORIENTED_EDGE('',*,*,#766,.T.);
#541=ORIENTED_EDGE('',*,*,#776,.F.);
#542=ORIENTED_EDGE('',*,*,#768,.F.);
#543=ORIENTED_EDGE('',*,*,#757,.F.);
#544=ORIENTED_EDGE('',*,*,#758,.T.);
#545=ORIENTED_EDGE('',*,*,#751,.F.);
#546=ORIENTED_EDGE('',*,*,#759,.T.);
#547=ORIENTED_EDGE('',*,*,#755,.F.);
#548=ORIENTED_EDGE('',*,*,#767,.F.);
#549=ORIENTED_EDGE('',*,*,#777,.T.);
#550=ORIENTED_EDGE('',*,*,#775,.F.);
#551=ORIENTED_EDGE('',*,*,#745,.F.);
#552=ORIENTED_EDGE('',*,*,#760,.T.);
#553=ORIENTED_EDGE('',*,*,#777,.F.);
#554=ORIENTED_EDGE('',*,*,#774,.F.);
#555=ORIENTED_EDGE('',*,*,#749,.F.);
#556=ORIENTED_EDGE('',*,*,#761,.T.);
#557=ORIENTED_EDGE('',*,*,#743,.F.);
#558=ORIENTED_EDGE('',*,*,#762,.T.);
#559=ORIENTED_EDGE('',*,*,#747,.F.);
#560=ORIENTED_EDGE('',*,*,#773,.F.);
#561=ORIENTED_EDGE('',*,*,#778,.T.);
#562=ORIENTED_EDGE('',*,*,#763,.F.);
#563=ORIENTED_EDGE('',*,*,#778,.F.);
#564=ORIENTED_EDGE('',*,*,#772,.T.);
#565=ORIENTED_EDGE('',*,*,#738,.T.);
#566=ORIENTED_EDGE('',*,*,#764,.F.);
#567=ORIENTED_EDGE('',*,*,#741,.F.);
#568=ORIENTED_EDGE('',*,*,#771,.T.);
#569=ORIENTED_EDGE('',*,*,#779,.T.);
#570=ORIENTED_EDGE('',*,*,#765,.T.);
#571=ORIENTED_EDGE('',*,*,#779,.F.);
#572=ORIENTED_EDGE('',*,*,#770,.F.);
#573=ORIENTED_EDGE('',*,*,#776,.T.);
#574=VERTEX_POINT('',#1313);
#575=VERTEX_POINT('',#1314);
#576=VERTEX_POINT('',#1316);
#577=VERTEX_POINT('',#1318);
#578=VERTEX_POINT('',#1322);
#579=VERTEX_POINT('',#1323);
#580=VERTEX_POINT('',#1325);
#581=VERTEX_POINT('',#1327);
#582=VERTEX_POINT('',#1329);
#583=VERTEX_POINT('',#1331);
#584=VERTEX_POINT('',#1333);
#585=VERTEX_POINT('',#1335);
#586=VERTEX_POINT('',#1339);
#587=VERTEX_POINT('',#1340);
#588=VERTEX_POINT('',#1342);
#589=VERTEX_POINT('',#1344);
#590=VERTEX_POINT('',#1348);
#591=VERTEX_POINT('',#1349);
#592=VERTEX_POINT('',#1351);
#593=VERTEX_POINT('',#1353);
#594=VERTEX_POINT('',#1357);
#595=VERTEX_POINT('',#1358);
#596=VERTEX_POINT('',#1360);
#597=VERTEX_POINT('',#1363);
#598=VERTEX_POINT('',#1367);
#599=VERTEX_POINT('',#1369);
#600=VERTEX_POINT('',#1371);
#601=VERTEX_POINT('',#1373);
#602=VERTEX_POINT('',#1380);
#603=VERTEX_POINT('',#1383);
#604=VERTEX_POINT('',#1396);
#605=VERTEX_POINT('',#1399);
#606=VERTEX_POINT('',#1491);
#607=VERTEX_POINT('',#1492);
#608=VERTEX_POINT('',#1494);
#609=VERTEX_POINT('',#1496);
#610=VERTEX_POINT('',#1500);
#611=VERTEX_POINT('',#1501);
#612=VERTEX_POINT('',#1503);
#613=VERTEX_POINT('',#1505);
#614=VERTEX_POINT('',#1509);
#615=VERTEX_POINT('',#1510);
#616=VERTEX_POINT('',#1512);
#617=VERTEX_POINT('',#1514);
#618=VERTEX_POINT('',#1518);
#619=VERTEX_POINT('',#1519);
#620=VERTEX_POINT('',#1521);
#621=VERTEX_POINT('',#1523);
#622=VERTEX_POINT('',#1527);
#623=VERTEX_POINT('',#1529);
#624=VERTEX_POINT('',#1536);
#625=VERTEX_POINT('',#1538);
#626=VERTEX_POINT('',#1548);
#627=VERTEX_POINT('',#1550);
#628=VERTEX_POINT('',#1554);
#629=VERTEX_POINT('',#1556);
#630=VERTEX_POINT('',#1560);
#631=VERTEX_POINT('',#1561);
#632=VERTEX_POINT('',#1563);
#633=VERTEX_POINT('',#1565);
#634=VERTEX_POINT('',#1569);
#635=VERTEX_POINT('',#1570);
#636=VERTEX_POINT('',#1572);
#637=VERTEX_POINT('',#1574);
#638=VERTEX_POINT('',#1578);
#639=VERTEX_POINT('',#1579);
#640=VERTEX_POINT('',#1581);
#641=VERTEX_POINT('',#1583);
#642=VERTEX_POINT('',#1587);
#643=VERTEX_POINT('',#1588);
#644=VERTEX_POINT('',#1590);
#645=VERTEX_POINT('',#1592);
#646=VERTEX_POINT('',#1597);
#647=VERTEX_POINT('',#1601);
#648=VERTEX_POINT('',#1604);
#649=VERTEX_POINT('',#1606);
#650=VERTEX_POINT('',#1610);
#651=VERTEX_POINT('',#1613);
#652=VERTEX_POINT('',#1615);
#653=VERTEX_POINT('',#1618);
#654=EDGE_CURVE('',#574,#575,#780,.T.);
#655=EDGE_CURVE('',#575,#576,#781,.T.);
#656=EDGE_CURVE('',#576,#577,#782,.T.);
#657=EDGE_CURVE('',#577,#574,#783,.T.);
#658=EDGE_CURVE('',#578,#579,#784,.T.);
#659=EDGE_CURVE('',#578,#580,#132,.T.);
#660=EDGE_CURVE('',#580,#581,#785,.T.);
#661=EDGE_CURVE('',#581,#582,#133,.T.);
#662=EDGE_CURVE('',#582,#583,#786,.T.);
#663=EDGE_CURVE('',#583,#584,#134,.T.);
#664=EDGE_CURVE('',#584,#585,#787,.T.);
#665=EDGE_CURVE('',#585,#579,#135,.T.);
#666=EDGE_CURVE('',#586,#587,#788,.T.);
#667=EDGE_CURVE('',#587,#588,#789,.T.);
#668=EDGE_CURVE('',#588,#589,#790,.T.);
#669=EDGE_CURVE('',#589,#586,#791,.T.);
#670=EDGE_CURVE('',#590,#591,#792,.T.);
#671=EDGE_CURVE('',#591,#592,#793,.T.);
#672=EDGE_CURVE('',#592,#593,#794,.T.);
#673=EDGE_CURVE('',#593,#590,#795,.T.);
#674=EDGE_CURVE('',#594,#595,#796,.T.);
#675=EDGE_CURVE('',#595,#596,#100,.T.);
#676=EDGE_CURVE('',#596,#583,#797,.T.);
#677=EDGE_CURVE('',#582,#597,#798,.T.);
#678=EDGE_CURVE('',#597,#594,#101,.T.);
#679=EDGE_CURVE('',#579,#598,#799,.T.);
#680=EDGE_CURVE('',#598,#599,#102,.T.);
#681=EDGE_CURVE('',#599,#600,#800,.T.);
#682=EDGE_CURVE('',#600,#601,#103,.T.);
#683=EDGE_CURVE('',#601,#578,#801,.T.);
#684=EDGE_CURVE('',#574,#597,#136,.T.);
#685=EDGE_CURVE('',#575,#581,#137,.T.);
#686=EDGE_CURVE('',#577,#602,#138,.T.);
#687=EDGE_CURVE('',#602,#591,#104,.T.);
#688=EDGE_CURVE('',#590,#603,#105,.T.);
#689=EDGE_CURVE('',#603,#574,#139,.T.);
#690=EDGE_CURVE('',#576,#580,#140,.T.);
#691=EDGE_CURVE('',#601,#577,#141,.T.);
#692=EDGE_CURVE('',#586,#598,#142,.T.);
#693=EDGE_CURVE('',#587,#585,#143,.T.);
#694=EDGE_CURVE('',#588,#584,#144,.T.);
#695=EDGE_CURVE('',#592,#604,#106,.T.);
#696=EDGE_CURVE('',#604,#586,#145,.T.);
#697=EDGE_CURVE('',#589,#605,#146,.T.);
#698=EDGE_CURVE('',#605,#593,#107,.T.);
#699=EDGE_CURVE('',#596,#589,#147,.T.);
#700=EDGE_CURVE('',#602,#601,#108,.T.);
#701=EDGE_CURVE('',#591,#600,#109,.T.);
#702=EDGE_CURVE('',#592,#599,#110,.T.);
#703=EDGE_CURVE('',#604,#598,#111,.T.);
#704=EDGE_CURVE('',#597,#603,#112,.T.);
#705=EDGE_CURVE('',#594,#590,#113,.T.);
#706=EDGE_CURVE('',#595,#593,#114,.T.);
#707=EDGE_CURVE('',#596,#605,#115,.T.);
#708=EDGE_CURVE('',#606,#607,#116,.T.);
#709=EDGE_CURVE('',#608,#606,#802,.T.);
#710=EDGE_CURVE('',#609,#608,#117,.T.);
#711=EDGE_CURVE('',#607,#609,#803,.T.);
#712=EDGE_CURVE('',#610,#611,#118,.T.);
#713=EDGE_CURVE('',#612,#610,#804,.T.);
#714=EDGE_CURVE('',#613,#612,#119,.T.);
#715=EDGE_CURVE('',#611,#613,#805,.T.);
#716=EDGE_CURVE('',#614,#615,#120,.T.);
#717=EDGE_CURVE('',#616,#614,#806,.T.);
#718=EDGE_CURVE('',#617,#616,#121,.T.);
#719=EDGE_CURVE('',#615,#617,#807,.T.);
#720=EDGE_CURVE('',#618,#619,#122,.T.);
#721=EDGE_CURVE('',#620,#618,#808,.T.);
#722=EDGE_CURVE('',#621,#620,#123,.T.);
#723=EDGE_CURVE('',#619,#621,#809,.T.);
#724=EDGE_CURVE('',#616,#622,#810,.T.);
#725=EDGE_CURVE('',#614,#623,#811,.T.);
#726=EDGE_CURVE('',#623,#622,#812,.T.);
#727=EDGE_CURVE('',#620,#617,#813,.T.);
#728=EDGE_CURVE('',#618,#615,#814,.T.);
#729=EDGE_CURVE('',#624,#619,#815,.T.);
#730=EDGE_CURVE('',#625,#621,#816,.T.);
#731=EDGE_CURVE('',#624,#625,#817,.T.);
#732=EDGE_CURVE('',#608,#625,#818,.T.);
#733=EDGE_CURVE('',#606,#624,#819,.T.);
#734=EDGE_CURVE('',#612,#609,#820,.T.);
#735=EDGE_CURVE('',#610,#607,#821,.T.);
#736=EDGE_CURVE('',#626,#611,#822,.T.);
#737=EDGE_CURVE('',#627,#613,#823,.T.);
#738=EDGE_CURVE('',#626,#627,#824,.T.);
#739=EDGE_CURVE('',#622,#628,#825,.T.);
#740=EDGE_CURVE('',#623,#629,#826,.T.);
#741=EDGE_CURVE('',#629,#628,#827,.T.);
#742=EDGE_CURVE('',#630,#631,#124,.T.);
#743=EDGE_CURVE('',#631,#632,#828,.T.);
#744=EDGE_CURVE('',#632,#633,#125,.T.);
#745=EDGE_CURVE('',#633,#630,#829,.T.);
#746=EDGE_CURVE('',#634,#635,#126,.T.);
#747=EDGE_CURVE('',#635,#636,#830,.T.);
#748=EDGE_CURVE('',#636,#637,#127,.T.);
#749=EDGE_CURVE('',#637,#634,#831,.T.);
#750=EDGE_CURVE('',#638,#639,#128,.T.);
#751=EDGE_CURVE('',#639,#640,#832,.T.);
#752=EDGE_CURVE('',#640,#641,#129,.T.);
#753=EDGE_CURVE('',#641,#638,#833,.T.);
#754=EDGE_CURVE('',#642,#643,#130,.T.);
#755=EDGE_CURVE('',#643,#644,#834,.T.);
#756=EDGE_CURVE('',#644,#645,#131,.T.);
#757=EDGE_CURVE('',#645,#642,#835,.T.);
#758=EDGE_CURVE('',#645,#640,#836,.T.);
#759=EDGE_CURVE('',#646,#644,#837,.T.);
#760=EDGE_CURVE('',#633,#646,#838,.T.);
#761=EDGE_CURVE('',#637,#632,#839,.T.);
#762=EDGE_CURVE('',#647,#636,#840,.T.);
#763=EDGE_CURVE('',#647,#627,#841,.T.);
#764=EDGE_CURVE('',#628,#648,#842,.T.);
#765=EDGE_CURVE('',#649,#648,#843,.T.);
#766=EDGE_CURVE('',#641,#649,#844,.T.);
#767=EDGE_CURVE('',#650,#643,#845,.T.);
#768=EDGE_CURVE('',#642,#639,#846,.T.);
#769=EDGE_CURVE('',#638,#651,#847,.T.);
#770=EDGE_CURVE('',#651,#652,#848,.T.);
#771=EDGE_CURVE('',#629,#652,#849,.T.);
#772=EDGE_CURVE('',#653,#626,#850,.T.);
#773=EDGE_CURVE('',#653,#635,#851,.T.);
#774=EDGE_CURVE('',#634,#631,#852,.T.);
#775=EDGE_CURVE('',#630,#650,#853,.T.);
#776=EDGE_CURVE('',#651,#649,#854,.T.);
#777=EDGE_CURVE('',#650,#646,#855,.T.);
#778=EDGE_CURVE('',#653,#647,#856,.T.);
#779=EDGE_CURVE('',#652,#648,#857,.T.);
#780=LINE('',#1312,#858);
#781=LINE('',#1315,#859);
#782=LINE('',#1317,#860);
#783=LINE('',#1319,#861);
#784=LINE('',#1321,#862);
#785=LINE('',#1326,#863);
#786=LINE('',#1330,#864);
#787=LINE('',#1334,#865);
#788=LINE('',#1338,#866);
#789=LINE('',#1341,#867);
#790=LINE('',#1343,#868);
#791=LINE('',#1345,#869);
#792=LINE('',#1347,#870);
#793=LINE('',#1350,#871);
#794=LINE('',#1352,#872);
#795=LINE('',#1354,#873);
#796=LINE('',#1356,#874);
#797=LINE('',#1361,#875);
#798=LINE('',#1362,#876);
#799=LINE('',#1366,#877);
#800=LINE('',#1370,#878);
#801=LINE('',#1374,#879);
#802=LINE('',#1493,#880);
#803=LINE('',#1497,#881);
#804=LINE('',#1502,#882);
#805=LINE('',#1506,#883);
#806=LINE('',#1511,#884);
#807=LINE('',#1515,#885);
#808=LINE('',#1520,#886);
#809=LINE('',#1524,#887);
#810=LINE('',#1526,#888);
#811=LINE('',#1528,#889);
#812=LINE('',#1530,#890);
#813=LINE('',#1532,#891);
#814=LINE('',#1533,#892);
#815=LINE('',#1535,#893);
#816=LINE('',#1537,#894);
#817=LINE('',#1539,#895);
#818=LINE('',#1541,#896);
#819=LINE('',#1542,#897);
#820=LINE('',#1544,#898);
#821=LINE('',#1545,#899);
#822=LINE('',#1547,#900);
#823=LINE('',#1549,#901);
#824=LINE('',#1551,#902);
#825=LINE('',#1553,#903);
#826=LINE('',#1555,#904);
#827=LINE('',#1557,#905);
#828=LINE('',#1562,#906);
#829=LINE('',#1566,#907);
#830=LINE('',#1571,#908);
#831=LINE('',#1575,#909);
#832=LINE('',#1580,#910);
#833=LINE('',#1584,#911);
#834=LINE('',#1589,#912);
#835=LINE('',#1593,#913);
#836=LINE('',#1595,#914);
#837=LINE('',#1596,#915);
#838=LINE('',#1598,#916);
#839=LINE('',#1599,#917);
#840=LINE('',#1600,#918);
#841=LINE('',#1602,#919);
#842=LINE('',#1603,#920);
#843=LINE('',#1605,#921);
#844=LINE('',#1607,#922);
#845=LINE('',#1609,#923);
#846=LINE('',#1611,#924);
#847=LINE('',#1612,#925);
#848=LINE('',#1614,#926);
#849=LINE('',#1616,#927);
#850=LINE('',#1617,#928);
#851=LINE('',#1619,#929);
#852=LINE('',#1620,#930);
#853=LINE('',#1621,#931);
#854=LINE('',#1623,#932);
#855=LINE('',#1626,#933);
#856=LINE('',#1630,#934);
#857=LINE('',#1633,#935);
#858=VECTOR('',#1037,1.);
#859=VECTOR('',#1038,1.);
#860=VECTOR('',#1039,1.);
#861=VECTOR('',#1040,1.);
#862=VECTOR('',#1043,1.);
#863=VECTOR('',#1046,1.);
#864=VECTOR('',#1049,1.);
#865=VECTOR('',#1052,1.);
#866=VECTOR('',#1057,1.);
#867=VECTOR('',#1058,1.);
#868=VECTOR('',#1059,1.);
#869=VECTOR('',#1060,1.);
#870=VECTOR('',#1063,1.);
#871=VECTOR('',#1064,1.);
#872=VECTOR('',#1065,1.);
#873=VECTOR('',#1066,1.);
#874=VECTOR('',#1069,1.);
#875=VECTOR('',#1072,1.);
#876=VECTOR('',#1073,1.);
#877=VECTOR('',#1078,1.);
#878=VECTOR('',#1081,1.);
#879=VECTOR('',#1084,1.);
#880=VECTOR('',#1165,1.);
#881=VECTOR('',#1168,1.);
#882=VECTOR('',#1173,1.);
#883=VECTOR('',#1176,1.);
#884=VECTOR('',#1181,1.);
#885=VECTOR('',#1184,1.);
#886=VECTOR('',#1189,1.);
#887=VECTOR('',#1192,1.);
#888=VECTOR('',#1195,1.);
#889=VECTOR('',#1196,1.);
#890=VECTOR('',#1197,1.);
#891=VECTOR('',#1200,1.);
#892=VECTOR('',#1201,1.);
#893=VECTOR('',#1204,1.);
#894=VECTOR('',#1205,1.);
#895=VECTOR('',#1206,1.);
#896=VECTOR('',#1209,1.);
#897=VECTOR('',#1210,1.);
#898=VECTOR('',#1213,1.);
#899=VECTOR('',#1214,1.);
#900=VECTOR('',#1217,1.);
#901=VECTOR('',#1218,1.);
#902=VECTOR('',#1219,1.);
#903=VECTOR('',#1222,1.);
#904=VECTOR('',#1223,1.);
#905=VECTOR('',#1224,1.);
#906=VECTOR('',#1229,1.);
#907=VECTOR('',#1232,1.);
#908=VECTOR('',#1237,1.);
#909=VECTOR('',#1240,1.);
#910=VECTOR('',#1245,1.);
#911=VECTOR('',#1248,1.);
#912=VECTOR('',#1253,1.);
#913=VECTOR('',#1256,1.);
#914=VECTOR('',#1259,1.);
#915=VECTOR('',#1260,1.);
#916=VECTOR('',#1261,1.);
#917=VECTOR('',#1262,1.);
#918=VECTOR('',#1263,1.);
#919=VECTOR('',#1264,1.);
#920=VECTOR('',#1265,1.);
#921=VECTOR('',#1266,1.);
#922=VECTOR('',#1267,1.);
#923=VECTOR('',#1270,1.);
#924=VECTOR('',#1271,1.);
#925=VECTOR('',#1272,1.);
#926=VECTOR('',#1273,1.);
#927=VECTOR('',#1274,1.);
#928=VECTOR('',#1275,1.);
#929=VECTOR('',#1276,1.);
#930=VECTOR('',#1277,1.);
#931=VECTOR('',#1278,1.);
#932=VECTOR('',#1281,1.);
#933=VECTOR('',#1286,1.);
#934=VECTOR('',#1293,1.);
#935=VECTOR('',#1298,1.);
#936=AXIS2_PLACEMENT_3D('',#1311,#1035,#1036);
#937=AXIS2_PLACEMENT_3D('',#1320,#1041,#1042);
#938=AXIS2_PLACEMENT_3D('',#1324,#1044,#1045);
#939=AXIS2_PLACEMENT_3D('',#1328,#1047,#1048);
#940=AXIS2_PLACEMENT_3D('',#1332,#1050,#1051);
#941=AXIS2_PLACEMENT_3D('',#1336,#1053,#1054);
#942=AXIS2_PLACEMENT_3D('',#1337,#1055,#1056);
#943=AXIS2_PLACEMENT_3D('',#1346,#1061,#1062);
#944=AXIS2_PLACEMENT_3D('',#1355,#1067,#1068);
#945=AXIS2_PLACEMENT_3D('',#1359,#1070,#1071);
#946=AXIS2_PLACEMENT_3D('',#1364,#1074,#1075);
#947=AXIS2_PLACEMENT_3D('',#1365,#1076,#1077);
#948=AXIS2_PLACEMENT_3D('',#1368,#1079,#1080);
#949=AXIS2_PLACEMENT_3D('',#1372,#1082,#1083);
#950=AXIS2_PLACEMENT_3D('',#1375,#1085,#1086);
#951=AXIS2_PLACEMENT_3D('',#1376,#1087,#1088);
#952=AXIS2_PLACEMENT_3D('',#1377,#1089,#1090);
#953=AXIS2_PLACEMENT_3D('',#1378,#1091,#1092);
#954=AXIS2_PLACEMENT_3D('',#1379,#1093,#1094);
#955=AXIS2_PLACEMENT_3D('',#1381,#1095,#1096);
#956=AXIS2_PLACEMENT_3D('',#1382,#1097,#1098);
#957=AXIS2_PLACEMENT_3D('',#1384,#1099,#1100);
#958=AXIS2_PLACEMENT_3D('',#1385,#1101,#1102);
#959=AXIS2_PLACEMENT_3D('',#1386,#1103,#1104);
#960=AXIS2_PLACEMENT_3D('',#1387,#1105,#1106);
#961=AXIS2_PLACEMENT_3D('',#1388,#1107,#1108);
#962=AXIS2_PLACEMENT_3D('',#1389,#1109,#1110);
#963=AXIS2_PLACEMENT_3D('',#1390,#1111,#1112);
#964=AXIS2_PLACEMENT_3D('',#1391,#1113,#1114);
#965=AXIS2_PLACEMENT_3D('',#1392,#1115,#1116);
#966=AXIS2_PLACEMENT_3D('',#1393,#1117,#1118);
#967=AXIS2_PLACEMENT_3D('',#1394,#1119,#1120);
#968=AXIS2_PLACEMENT_3D('',#1395,#1121,#1122);
#969=AXIS2_PLACEMENT_3D('',#1397,#1123,#1124);
#970=AXIS2_PLACEMENT_3D('',#1398,#1125,#1126);
#971=AXIS2_PLACEMENT_3D('',#1400,#1127,#1128);
#972=AXIS2_PLACEMENT_3D('',#1401,#1129,#1130);
#973=AXIS2_PLACEMENT_3D('',#1402,#1131,#1132);
#974=AXIS2_PLACEMENT_3D('',#1403,#1133,#1134);
#975=AXIS2_PLACEMENT_3D('',#1404,#1135,#1136);
#976=AXIS2_PLACEMENT_3D('',#1423,#1137,#1138);
#977=AXIS2_PLACEMENT_3D('',#1424,#1139,#1140);
#978=AXIS2_PLACEMENT_3D('',#1425,#1141,#1142);
#979=AXIS2_PLACEMENT_3D('',#1426,#1143,#1144);
#980=AXIS2_PLACEMENT_3D('',#1427,#1145,#1146);
#981=AXIS2_PLACEMENT_3D('',#1428,#1147,#1148);
#982=AXIS2_PLACEMENT_3D('',#1447,#1149,#1150);
#983=AXIS2_PLACEMENT_3D('',#1466,#1151,#1152);
#984=AXIS2_PLACEMENT_3D('',#1467,#1153,#1154);
#985=AXIS2_PLACEMENT_3D('',#1468,#1155,#1156);
#986=AXIS2_PLACEMENT_3D('',#1469,#1157,#1158);
#987=AXIS2_PLACEMENT_3D('',#1470,#1159,#1160);
#988=AXIS2_PLACEMENT_3D('',#1471,#1161,#1162);
#989=AXIS2_PLACEMENT_3D('',#1490,#1163,#1164);
#990=AXIS2_PLACEMENT_3D('',#1495,#1166,#1167);
#991=AXIS2_PLACEMENT_3D('',#1498,#1169,#1170);
#992=AXIS2_PLACEMENT_3D('',#1499,#1171,#1172);
#993=AXIS2_PLACEMENT_3D('',#1504,#1174,#1175);
#994=AXIS2_PLACEMENT_3D('',#1507,#1177,#1178);
#995=AXIS2_PLACEMENT_3D('',#1508,#1179,#1180);
#996=AXIS2_PLACEMENT_3D('',#1513,#1182,#1183);
#997=AXIS2_PLACEMENT_3D('',#1516,#1185,#1186);
#998=AXIS2_PLACEMENT_3D('',#1517,#1187,#1188);
#999=AXIS2_PLACEMENT_3D('',#1522,#1190,#1191);
#1000=AXIS2_PLACEMENT_3D('',#1525,#1193,#1194);
#1001=AXIS2_PLACEMENT_3D('',#1531,#1198,#1199);
#1002=AXIS2_PLACEMENT_3D('',#1534,#1202,#1203);
#1003=AXIS2_PLACEMENT_3D('',#1540,#1207,#1208);
#1004=AXIS2_PLACEMENT_3D('',#1543,#1211,#1212);
#1005=AXIS2_PLACEMENT_3D('',#1546,#1215,#1216);
#1006=AXIS2_PLACEMENT_3D('',#1552,#1220,#1221);
#1007=AXIS2_PLACEMENT_3D('',#1558,#1225,#1226);
#1008=AXIS2_PLACEMENT_3D('',#1559,#1227,#1228);
#1009=AXIS2_PLACEMENT_3D('',#1564,#1230,#1231);
#1010=AXIS2_PLACEMENT_3D('',#1567,#1233,#1234);
#1011=AXIS2_PLACEMENT_3D('',#1568,#1235,#1236);
#1012=AXIS2_PLACEMENT_3D('',#1573,#1238,#1239);
#1013=AXIS2_PLACEMENT_3D('',#1576,#1241,#1242);
#1014=AXIS2_PLACEMENT_3D('',#1577,#1243,#1244);
#1015=AXIS2_PLACEMENT_3D('',#1582,#1246,#1247);
#1016=AXIS2_PLACEMENT_3D('',#1585,#1249,#1250);
#1017=AXIS2_PLACEMENT_3D('',#1586,#1251,#1252);
#1018=AXIS2_PLACEMENT_3D('',#1591,#1254,#1255);
#1019=AXIS2_PLACEMENT_3D('',#1594,#1257,#1258);
#1020=AXIS2_PLACEMENT_3D('',#1608,#1268,#1269);
#1021=AXIS2_PLACEMENT_3D('',#1622,#1279,#1280);
#1022=AXIS2_PLACEMENT_3D('',#1624,#1282,#1283);
#1023=AXIS2_PLACEMENT_3D('',#1625,#1284,#1285);
#1024=AXIS2_PLACEMENT_3D('',#1627,#1287,#1288);
#1025=AXIS2_PLACEMENT_3D('',#1628,#1289,#1290);
#1026=AXIS2_PLACEMENT_3D('',#1629,#1291,#1292);
#1027=AXIS2_PLACEMENT_3D('',#1631,#1294,#1295);
#1028=AXIS2_PLACEMENT_3D('',#1632,#1296,#1297);
#1029=AXIS2_PLACEMENT_3D('',#1634,#1299,#1300);
#1030=AXIS2_PLACEMENT_3D('',#1635,#1301,#1302);
#1031=AXIS2_PLACEMENT_3D('',#1636,#1303,#1304);
#1032=AXIS2_PLACEMENT_3D('',#1637,#1305,#1306);
#1033=AXIS2_PLACEMENT_3D('',#1638,#1307,#1308);
#1034=AXIS2_PLACEMENT_3D('',#1639,#1309,#1310);
#1035=DIRECTION('',(0.,0.,1.));
#1036=DIRECTION('',(1.,0.,0.));
#1037=DIRECTION('',(0.711056532332858,-0.703134843274583,0.));
#1038=DIRECTION('',(0.,0.,1.));
#1039=DIRECTION('',(-0.711056532332858,0.703134843274583,0.));
#1040=DIRECTION('',(0.,0.,-1.));
#1041=DIRECTION('',(-0.703134843274583,-0.711056532332857,0.));
#1042=DIRECTION('',(0.711056532332858,-0.703134843274583,0.));
#1043=DIRECTION('',(0.999999548388873,0.00095037995034061,0.));
#1044=DIRECTION('',(0.00095037995034061,-0.999999548388873,0.));
#1045=DIRECTION('',(0.999999548388873,0.00095037995034061,0.));
#1046=DIRECTION('',(0.,0.,-1.));
#1047=DIRECTION('',(0.00095037995034061,-0.999999548388873,0.));
#1048=DIRECTION('',(-0.999999548388873,-0.00095037995034061,0.));
#1049=DIRECTION('',(0.999999548388873,0.000950379950340612,0.));
#1050=DIRECTION('',(0.00095037995034061,-0.999999548388873,0.));
#1051=DIRECTION('',(-0.999999548388873,-0.00095037995034061,0.));
#1052=DIRECTION('',(0.,0.,1.));
#1053=DIRECTION('',(0.00095037995034061,-0.999999548388873,0.));
#1054=DIRECTION('',(0.999999548388873,0.00095037995034061,0.));
#1055=DIRECTION('',(0.00095037995034061,-0.999999548388873,0.));
#1056=DIRECTION('',(0.999999548388873,0.000950379950340609,0.));
#1057=DIRECTION('',(-0.709718757937687,-0.704485120234194,0.));
#1058=DIRECTION('',(0.,0.,-1.));
#1059=DIRECTION('',(0.709718757937687,0.704485120234194,0.));
#1060=DIRECTION('',(0.,0.,1.));
#1061=DIRECTION('',(0.704485120234194,-0.709718757937687,0.));
#1062=DIRECTION('',(0.709718757937687,0.704485120234194,0.));
#1063=DIRECTION('',(0.,0.,1.));
#1064=DIRECTION('',(0.999999548388873,0.000950379950340735,0.));
#1065=DIRECTION('',(0.,0.,-1.));
#1066=DIRECTION('',(-0.999999548388873,-0.000950379950340735,0.));
#1067=DIRECTION('',(-0.000950379950340735,0.999999548388873,0.));
#1068=DIRECTION('',(-0.999999548388873,-0.000950379950340734,0.));
#1069=DIRECTION('',(0.999999548388873,0.000950379950340735,0.));
#1070=DIRECTION('',(0.,0.,-1.));
#1071=DIRECTION('',(1.00000000000001,0.,0.));
#1072=DIRECTION('',(-0.709718757937687,-0.704485120234194,0.));
#1073=DIRECTION('',(-0.711056532332858,0.703134843274583,0.));
#1074=DIRECTION('',(0.,0.,-1.));
#1075=DIRECTION('',(1.00000000000001,0.,0.));
#1076=DIRECTION('',(0.,0.,1.));
#1077=DIRECTION('',(1.,0.,0.));
#1078=DIRECTION('',(0.709718757937687,0.704485120234194,0.));
#1079=DIRECTION('',(0.,0.,1.));
#1080=DIRECTION('',(1.00000000000001,0.,0.));
#1081=DIRECTION('',(-0.999999548388873,-0.000950379950340735,0.));
#1082=DIRECTION('',(0.,0.,1.));
#1083=DIRECTION('',(1.00000000000001,0.,0.));
#1084=DIRECTION('',(0.711056532332858,-0.703134843274583,0.));
#1085=DIRECTION('',(0.,0.,1.));
#1086=DIRECTION('',(1.,0.,0.));
#1087=DIRECTION('',(0.609725946257118,-0.602933153929953,-0.514495755427528));
#1088=DIRECTION('',(0.365835567754274,-0.361759892357971,0.857492925712543));
#1089=DIRECTION('',(0.502792895819555,-0.497191415767998,0.707106781186548));
#1090=DIRECTION('',(-0.502792895819555,0.497191415767998,0.707106781186547));
#1091=DIRECTION('',(-0.711056532332858,0.703134843274583,0.));
#1092=DIRECTION('',(-0.703134843274583,-0.711056532332856,0.));
#1093=DIRECTION('',(-0.365835567754272,0.361759892357973,-0.857492925712543));
#1094=DIRECTION('',(0.60972594625712,-0.60293315392995,-0.514495755427528));
#1095=DIRECTION('',(0.,0.,-1.));
#1096=DIRECTION('',(1.,0.,0.));
#1097=DIRECTION('',(0.,0.,1.));
#1098=DIRECTION('',(1.,0.,0.));
#1099=DIRECTION('',(-0.365835567754269,0.36175989235797,0.857492925712545));
#1100=DIRECTION('',(0.609725946257121,-0.602933153929952,0.514495755427524));
#1101=DIRECTION('',(0.,0.,1.));
#1102=DIRECTION('',(1.,0.,0.));
#1103=DIRECTION('',(-0.502792895819555,0.497191415767998,0.707106781186548));
#1104=DIRECTION('',(0.502792895819555,-0.497191415767998,0.707106781186547));
#1105=DIRECTION('',(0.,0.,1.));
#1106=DIRECTION('',(1.,0.,0.));
#1107=DIRECTION('',(0.609725946257118,-0.602933153929952,0.514495755427529));
#1108=DIRECTION('',(0.365835567754274,-0.361759892357972,-0.857492925712543));
#1109=DIRECTION('',(0.711056532332858,-0.703134843274583,0.));
#1110=DIRECTION('',(0.703134843274583,0.711056532332856,0.));
#1111=DIRECTION('',(-0.60857881417706,-0.604091006870572,0.514495755427526));
#1112=DIRECTION('',(0.365147288506239,0.362454604122341,0.857492925712544));
#1113=DIRECTION('',(-0.501846946473032,-0.498146205762619,-0.707106781186547));
#1114=DIRECTION('',(-0.501846946473032,-0.498146205762619,0.707106781186547));
#1115=DIRECTION('',(0.709718757937687,0.704485120234194,0.));
#1116=DIRECTION('',(-0.704485120234195,0.70971875793769,0.));
#1117=DIRECTION('',(0.501846946473032,0.498146205762619,-0.707106781186547));
#1118=DIRECTION('',(0.501846946473032,0.498146205762619,0.707106781186547));
#1119=DIRECTION('',(0.,0.,1.));
#1120=DIRECTION('',(1.,0.,0.));
#1121=DIRECTION('',(0.,0.,-1.));
#1122=DIRECTION('',(1.,0.,0.));
#1123=DIRECTION('',(0.365147288506237,0.362454604122344,-0.857492925712543));
#1124=DIRECTION('',(0.608578814177062,0.604091006870569,0.514495755427528));
#1125=DIRECTION('',(0.365147288506233,0.36245460412234,0.857492925712547));
#1126=DIRECTION('',(-0.608578814177067,-0.604091006870569,0.514495755427522));
#1127=DIRECTION('',(0.,0.,1.));
#1128=DIRECTION('',(1.,0.,0.));
#1129=DIRECTION('',(0.,0.,1.));
#1130=DIRECTION('',(1.,0.,0.));
#1131=DIRECTION('',(-0.60857881417706,-0.604091006870572,-0.514495755427526));
#1132=DIRECTION('',(-0.365147288506239,-0.362454604122341,0.857492925712544));
#1133=DIRECTION('',(-0.709718757937687,-0.704485120234194,0.));
#1134=DIRECTION('',(0.704485120234188,-0.709718757937686,0.));
#1135=DIRECTION('',(0.703134843274584,0.711056532332856,-2.43948903881139E-14));
#1136=DIRECTION('',(-0.711056532332853,0.703134843274581,0.));
#1137=DIRECTION('',(0.999999548388873,0.000950379950327704,0.));
#1138=DIRECTION('',(-0.000950379950327707,0.999999548388876,0.));
#1139=DIRECTION('',(0.,0.,1.));
#1140=DIRECTION('',(1.,0.,0.));
#1141=DIRECTION('',(0.999999548388873,0.000950379950327704,3.46944538511277E-14));
#1142=DIRECTION('',(-0.000950379950327707,0.999999548388876,0.));
#1143=DIRECTION('',(-0.999999548388873,-0.000950379950340735,0.));
#1144=DIRECTION('',(0.000950379950340734,-0.999999548388876,0.));
#1145=DIRECTION('',(0.704485120234206,-0.709718757937675,3.67533954382872E-14));
#1146=DIRECTION('',(0.709718757937669,0.704485120234209,0.));
#1147=DIRECTION('',(0.,0.,1.));
#1148=DIRECTION('',(1.,0.,0.));
#1149=DIRECTION('',(0.703134843274584,0.711056532332856,0.));
#1150=DIRECTION('',(-0.711056532332853,0.703134843274581,0.));
#1151=DIRECTION('',(0.999999548388873,0.000950379950327704,0.));
#1152=DIRECTION('',(-0.000950379950327707,0.999999548388876,0.));
#1153=DIRECTION('',(0.,0.,1.));
#1154=DIRECTION('',(1.,0.,0.));
#1155=DIRECTION('',(0.999999548388873,0.00095037995029301,0.));
#1156=DIRECTION('',(-0.000950379950293012,0.999999548388876,0.));
#1157=DIRECTION('',(0.999999548388873,0.000950379950340735,0.));
#1158=DIRECTION('',(-0.000950379950345054,0.999999548388876,0.));
#1159=DIRECTION('',(0.704485120234176,-0.709718757937705,0.));
#1160=DIRECTION('',(0.709718757937704,0.704485120234175,0.));
#1161=DIRECTION('',(0.,0.,1.));
#1162=DIRECTION('',(1.,0.,0.));
#1163=DIRECTION('',(0.,1.,0.));
#1164=DIRECTION('',(0.,0.,1.));
#1165=DIRECTION('',(0.,-1.,0.));
#1166=DIRECTION('',(0.,-1.,0.));
#1167=DIRECTION('',(0.,0.,1.));
#1168=DIRECTION('',(0.,1.,0.));
#1169=DIRECTION('',(0.,-1.,0.));
#1170=DIRECTION('',(0.,0.,-1.));
#1171=DIRECTION('',(0.,1.,0.));
#1172=DIRECTION('',(0.,0.,1.));
#1173=DIRECTION('',(0.,-1.,0.));
#1174=DIRECTION('',(0.,-1.,0.));
#1175=DIRECTION('',(0.,0.,1.));
#1176=DIRECTION('',(0.,1.,0.));
#1177=DIRECTION('',(0.,-1.,0.));
#1178=DIRECTION('',(0.,0.,-1.));
#1179=DIRECTION('',(0.,-1.,0.));
#1180=DIRECTION('',(0.,0.,0.999999999999999));
#1181=DIRECTION('',(0.,-1.,0.));
#1182=DIRECTION('',(0.,1.,0.));
#1183=DIRECTION('',(0.,0.,0.999999999999999));
#1184=DIRECTION('',(0.,1.,0.));
#1185=DIRECTION('',(0.,1.,0.));
#1186=DIRECTION('',(0.,0.,0.999999999999999));
#1187=DIRECTION('',(0.,-1.,0.));
#1188=DIRECTION('',(0.,0.,1.));
#1189=DIRECTION('',(0.,-1.,0.));
#1190=DIRECTION('',(0.,1.,0.));
#1191=DIRECTION('',(0.,0.,1.));
#1192=DIRECTION('',(0.,1.,0.));
#1193=DIRECTION('',(0.,1.,0.));
#1194=DIRECTION('',(0.,0.,1.));
#1195=DIRECTION('',(-0.405883015908183,0.,0.913925039265955));
#1196=DIRECTION('',(-0.405883015908183,0.,0.913925039265955));
#1197=DIRECTION('',(0.,1.,0.));
#1198=DIRECTION('',(-0.913925039265955,0.,-0.405883015908183));
#1199=DIRECTION('',(-0.405883015908183,0.,0.913925039265955));
#1200=DIRECTION('',(-0.798334999296382,0.,-0.60221360736739));
#1201=DIRECTION('',(-0.798334999296382,0.,-0.60221360736739));
#1202=DIRECTION('',(0.60221360736739,0.,-0.798334999296382));
#1203=DIRECTION('',(-0.798334999296382,0.,-0.60221360736739));
#1204=DIRECTION('',(-1.98822174897054E-15,0.,-1.));
#1205=DIRECTION('',(-1.98822174897054E-15,0.,-1.));
#1206=DIRECTION('',(0.,1.,0.));
#1207=DIRECTION('',(1.,0.,-1.98822174897054E-15));
#1208=DIRECTION('',(-1.98799310346942E-15,0.,-1.));
#1209=DIRECTION('',(1.,0.,-7.54227598250786E-16));
#1210=DIRECTION('',(1.,0.,-7.54227598250786E-16));
#1211=DIRECTION('',(7.54227598250786E-16,0.,1.));
#1212=DIRECTION('',(1.,0.,-7.54171031180917E-16));
#1213=DIRECTION('',(-8.93266465487533E-16,0.,-1.));
#1214=DIRECTION('',(-8.93266465487533E-16,0.,-1.));
#1215=DIRECTION('',(1.,0.,-8.93266465487533E-16));
#1216=DIRECTION('',(-8.93165749693559E-16,0.,-1.));
#1217=DIRECTION('',(-1.,0.,1.00563679766771E-15));
#1218=DIRECTION('',(-1.,0.,1.00563679766771E-15));
#1219=DIRECTION('',(0.,1.,0.));
#1220=DIRECTION('',(-1.00563679766771E-15,0.,-1.));
#1221=DIRECTION('',(-1.,0.,1.00570593519755E-15));
#1222=DIRECTION('',(-1.,0.,7.84055808351099E-16));
#1223=DIRECTION('',(-1.,0.,7.84055808351099E-16));
#1224=DIRECTION('',(0.,1.,0.));
#1225=DIRECTION('',(-7.84055808351099E-16,0.,-1.));
#1226=DIRECTION('',(-1.,0.,7.84095011141517E-16));
#1227=DIRECTION('',(0.,-1.,0.));
#1228=DIRECTION('',(0.,0.,-1.));
#1229=DIRECTION('',(0.,1.,0.));
#1230=DIRECTION('',(0.,1.,0.));
#1231=DIRECTION('',(0.,0.,-1.));
#1232=DIRECTION('',(0.,-1.,0.));
#1233=DIRECTION('',(0.,-1.,0.));
#1234=DIRECTION('',(0.,0.,-1.));
#1235=DIRECTION('',(0.,-1.,0.));
#1236=DIRECTION('',(0.,0.,-1.));
#1237=DIRECTION('',(0.,1.,0.));
#1238=DIRECTION('',(0.,1.,0.));
#1239=DIRECTION('',(0.,0.,-1.));
#1240=DIRECTION('',(0.,-1.,0.));
#1241=DIRECTION('',(0.,-1.,0.));
#1242=DIRECTION('',(0.,0.,-1.));
#1243=DIRECTION('',(0.,1.,0.));
#1244=DIRECTION('',(0.,0.,-0.999999999999999));
#1245=DIRECTION('',(0.,1.,0.));
#1246=DIRECTION('',(0.,-1.,0.));
#1247=DIRECTION('',(0.,0.,-0.999999999999999));
#1248=DIRECTION('',(0.,-1.,0.));
#1249=DIRECTION('',(0.,1.,0.));
#1250=DIRECTION('',(0.,0.,0.999999999999999));
#1251=DIRECTION('',(0.,1.,0.));
#1252=DIRECTION('',(0.,0.,-1.));
#1253=DIRECTION('',(0.,1.,0.));
#1254=DIRECTION('',(0.,-1.,0.));
#1255=DIRECTION('',(0.,0.,-1.));
#1256=DIRECTION('',(0.,-1.,0.));
#1257=DIRECTION('',(0.,1.,0.));
#1258=DIRECTION('',(0.,0.,1.));
#1259=DIRECTION('',(-0.798334999296382,0.,0.60221360736739));
#1260=DIRECTION('',(-1.98822174897054E-15,0.,1.));
#1261=DIRECTION('',(1.,0.,7.54227598250786E-16));
#1262=DIRECTION('',(-8.93266465487533E-16,0.,1.));
#1263=DIRECTION('',(-1.,0.,-1.00563679766771E-15));
#1264=DIRECTION('',(0.,0.,-1.));
#1265=DIRECTION('',(0.,0.,1.));
#1266=DIRECTION('',(-1.,0.,-7.84055808351099E-16));
#1267=DIRECTION('',(-0.405883015908183,0.,-0.913925039265955));
#1268=DIRECTION('',(0.,-1.,0.));
#1269=DIRECTION('',(0.,0.,-1.));
#1270=DIRECTION('',(-1.98822174897054E-15,0.,1.));
#1271=DIRECTION('',(-0.798334999296382,0.,0.60221360736739));
#1272=DIRECTION('',(-0.405883015908183,0.,-0.913925039265955));
#1273=DIRECTION('',(-1.,0.,-7.84055808351099E-16));
#1274=DIRECTION('',(0.,0.,1.));
#1275=DIRECTION('',(0.,0.,-1.));
#1276=DIRECTION('',(-1.,0.,-1.00563679766771E-15));
#1277=DIRECTION('',(-8.93266465487533E-16,0.,1.));
#1278=DIRECTION('',(1.,0.,7.54227598250786E-16));
#1279=DIRECTION('',(0.,-1.,0.));
#1280=DIRECTION('',(0.,0.,-1.));
#1281=DIRECTION('',(0.,1.,0.));
#1282=DIRECTION('',(0.913925039265955,0.,-0.405883015908183));
#1283=DIRECTION('',(-0.405883015908183,0.,-0.913925039265955));
#1284=DIRECTION('',(-0.60221360736739,0.,-0.798334999296382));
#1285=DIRECTION('',(-0.798334999296382,0.,0.60221360736739));
#1286=DIRECTION('',(0.,1.,0.));
#1287=DIRECTION('',(-1.,0.,-1.98822174897054E-15));
#1288=DIRECTION('',(-1.98799310346942E-15,0.,1.));
#1289=DIRECTION('',(-7.54227598250786E-16,0.,1.));
#1290=DIRECTION('',(1.,0.,7.54171031180917E-16));
#1291=DIRECTION('',(-1.,0.,-8.93266465487533E-16));
#1292=DIRECTION('',(-8.93165749693559E-16,0.,1.));
#1293=DIRECTION('',(0.,1.,0.));
#1294=DIRECTION('',(1.00563679766771E-15,0.,-1.));
#1295=DIRECTION('',(-1.,0.,-1.00570593519755E-15));
#1296=DIRECTION('',(-1.,0.,0.));
#1297=DIRECTION('',(0.,0.,1.));
#1298=DIRECTION('',(0.,1.,0.));
#1299=DIRECTION('',(1.,0.,0.));
#1300=DIRECTION('',(0.,0.,-1.));
#1301=DIRECTION('',(7.84055808351099E-16,0.,-1.));
#1302=DIRECTION('',(-1.,0.,-7.84095011141517E-16));
#1303=DIRECTION('',(-1.,0.,0.));
#1304=DIRECTION('',(0.,0.,1.));
#1305=DIRECTION('',(-1.,0.,0.));
#1306=DIRECTION('',(0.,0.,1.));
#1307=DIRECTION('',(1.,0.,1.01064309961486E-15));
#1308=DIRECTION('',(1.01064309961486E-15,0.,-1.));
#1309=DIRECTION('',(1.,0.,1.01064309961486E-15));
#1310=DIRECTION('',(1.01064309961486E-15,0.,-1.));
#1311=CARTESIAN_POINT('',(0.,0.,0.));
#1312=CARTESIAN_POINT('',(-33.0723602484472,7.34041137261715,-62.5));
#1313=CARTESIAN_POINT('',(-34.9109036964642,9.1584721039259,-62.5));
#1314=CARTESIAN_POINT('',(-33.21865714746,7.48507841733358,-62.5));
#1315=CARTESIAN_POINT('',(-33.21865714746,7.48507841733358,-63.));
#1316=CARTESIAN_POINT('',(-33.21865714746,7.48507841733358,-0.5));
#1317=CARTESIAN_POINT('',(-35.7749025159625,10.0128453455924,-0.5));
#1318=CARTESIAN_POINT('',(-34.9109036964642,9.1584721039259,-0.5));
#1319=CARTESIAN_POINT('',(-34.9109036964642,9.1584721039259,-63.));
#1320=CARTESIAN_POINT('',(-35.7749025159625,10.0128453455924,-63.));
#1321=CARTESIAN_POINT('',(55.2276397515528,7.42432996013079,0.));
#1322=CARTESIAN_POINT('',(-32.3619418665672,7.34108654030855,0.));
#1323=CARTESIAN_POINT('',(58.5172213696727,7.42745631395755,0.));
#1324=CARTESIAN_POINT('',(-32.3619418665672,7.34108654030855,-0.5));
#1325=CARTESIAN_POINT('',(-32.8666145358475,7.34060690930557,-0.148094850198524));
#1326=CARTESIAN_POINT('',(-32.8666145358475,7.34060690930557,-63.));
#1327=CARTESIAN_POINT('',(-32.8666145358475,7.34060690930557,-62.8519051498015));
#1328=CARTESIAN_POINT('',(-32.3619418665672,7.34108654030855,-62.5));
#1329=CARTESIAN_POINT('',(-32.3619418665672,7.34108654030856,-63.));
#1330=CARTESIAN_POINT('',(-33.0723602484472,7.34041137261715,-63.));
#1331=CARTESIAN_POINT('',(58.5172213696727,7.42745631395756,-63.));
#1332=CARTESIAN_POINT('',(58.5172213696727,7.42745631395755,-62.5));
#1333=CARTESIAN_POINT('',(59.0218940389531,7.42793594496053,-62.8519051498015));
#1334=CARTESIAN_POINT('',(59.0218940389531,7.42793594496053,-63.));
#1335=CARTESIAN_POINT('',(59.0218940389531,7.42793594496053,-0.148094850198524));
#1336=CARTESIAN_POINT('',(58.5172213696727,7.42745631395755,-0.5));
#1337=CARTESIAN_POINT('',(55.2276397515528,7.42432996013079,-63.));
#1338=CARTESIAN_POINT('',(59.2276397515528,7.42813148164896,-0.5));
#1339=CARTESIAN_POINT('',(61.0627241829694,9.24968355681608,-0.5));
#1340=CARTESIAN_POINT('',(59.373661409095,7.57307634018612,-0.5));
#1341=CARTESIAN_POINT('',(59.373661409095,7.57307634018612,-63.));
#1342=CARTESIAN_POINT('',(59.373661409095,7.57307634018612,-62.5));
#1343=CARTESIAN_POINT('',(61.9250974840375,10.1056975086737,-62.5));
#1344=CARTESIAN_POINT('',(61.0627241829694,9.24968355681608,-62.5));
#1345=CARTESIAN_POINT('',(61.0627241829694,9.24968355681608,-63.));
#1346=CARTESIAN_POINT('',(59.2276397515528,7.42813148164896,-63.));
#1347=CARTESIAN_POINT('',(-34.5598114648021,10.0140001442868,-63.));
#1348=CARTESIAN_POINT('',(-34.5598114648021,10.0140001442868,-62.8));
#1349=CARTESIAN_POINT('',(-34.5598114648021,10.0140001442868,-0.200000000000006));
#1350=CARTESIAN_POINT('',(-29.0749025159625,10.0192128941353,-0.200000000000006));
#1351=CARTESIAN_POINT('',(60.7100064328771,10.1045427099794,-0.200000000000006));
#1352=CARTESIAN_POINT('',(60.7100064328771,10.1045427099794,-63.));
#1353=CARTESIAN_POINT('',(60.7100064328771,10.1045427099794,-62.8));
#1354=CARTESIAN_POINT('',(-34.5598114648021,10.0140001442868,-62.8));
#1355=CARTESIAN_POINT('',(-29.0749025159625,10.0192128941353,-63.));
#1356=CARTESIAN_POINT('',(60.7101965088672,9.90454280030158,-63.));
#1357=CARTESIAN_POINT('',(-34.559621388812,9.81400023460898,-63.));
#1358=CARTESIAN_POINT('',(60.7101965088672,9.90454280030158,-63.));
#1359=CARTESIAN_POINT('',(60.7104816228523,9.60454293578492,-63.));
#1360=CARTESIAN_POINT('',(60.9233972502336,9.81588847185518,-63.));
#1361=CARTESIAN_POINT('',(58.8753971914357,7.7829908606178,-63.));
#1362=CARTESIAN_POINT('',(-35.4233350943252,10.3683736117588,-63.));
#1363=CARTESIAN_POINT('',(-34.7726532345268,9.7249408230747,-63.));
#1364=CARTESIAN_POINT('',(-34.5593362748269,9.51400037009232,-63.));
#1365=CARTESIAN_POINT('',(0.,0.,-63.));
#1366=CARTESIAN_POINT('',(25.3284286699991,-25.5165942045862,0.));
#1367=CARTESIAN_POINT('',(60.9233972502336,9.81588847185518,0.));
#1368=CARTESIAN_POINT('',(60.7104816228523,9.60454293578492,0.));
#1369=CARTESIAN_POINT('',(60.7101965088672,9.90454280030158,0.));
#1370=CARTESIAN_POINT('',(-0.00935823985549991,9.8468361268138,0.));
#1371=CARTESIAN_POINT('',(-34.559621388812,9.81400023460898,0.));
#1372=CARTESIAN_POINT('',(-34.5593362748269,9.51400037009232,0.));
#1373=CARTESIAN_POINT('',(-34.7726532345268,9.7249408230747,0.));
#1374=CARTESIAN_POINT('',(-12.3293860734275,-12.4682919514214,0.));
#1375=CARTESIAN_POINT('',(0.,0.,0.));
#1376=CARTESIAN_POINT('',(-34.5593362748269,9.51400037009232,-62.5));
#1377=CARTESIAN_POINT('',(-32.8670897258227,7.84060668350001,-62.5));
#1378=CARTESIAN_POINT('',(-35.4233350943252,10.3683736117588,-62.5));
#1379=CARTESIAN_POINT('',(-34.5593362748269,9.51400037009232,-0.5));
#1380=CARTESIAN_POINT('',(-34.9148645409933,9.86556779172961,-0.200000000000006));
#1381=CARTESIAN_POINT('',(-34.5593362748269,9.51400037009232,-0.200000000000006));
#1382=CARTESIAN_POINT('',(-34.5593362748269,9.51400037009232,-62.8));
#1383=CARTESIAN_POINT('',(-34.9148645409933,9.86556779172961,-62.8));
#1384=CARTESIAN_POINT('',(-34.5593362748269,9.51400037009232,-62.5));
#1385=CARTESIAN_POINT('',(-34.5593362748269,9.51400037009232,-63.));
#1386=CARTESIAN_POINT('',(-32.8670897258227,7.84060668350001,-0.500000000000014));
#1387=CARTESIAN_POINT('',(-32.8670897258227,7.84060668350001,-63.));
#1388=CARTESIAN_POINT('',(-34.5593362748269,9.51400037009232,-0.5));
#1389=CARTESIAN_POINT('',(-12.3293860734275,-12.4682919514214,-0.5));
#1390=CARTESIAN_POINT('',(60.7104816228523,9.60454293578492,-0.5));
#1391=CARTESIAN_POINT('',(59.0214188489779,7.92793571915496,-0.5));
#1392=CARTESIAN_POINT('',(25.3284286699991,-25.5165942045862,-0.5));
#1393=CARTESIAN_POINT('',(59.0214188489779,7.92793571915497,-62.5));
#1394=CARTESIAN_POINT('',(59.0214188489779,7.92793571915497,-63.));
#1395=CARTESIAN_POINT('',(60.7104816228523,9.60454293578492,-0.200000000000006));
#1396=CARTESIAN_POINT('',(61.0653410018211,9.95678549590202,-0.200000000000006));
#1397=CARTESIAN_POINT('',(60.7104816228523,9.60454293578492,-0.5));
#1398=CARTESIAN_POINT('',(60.7104816228523,9.60454293578492,-62.5));
#1399=CARTESIAN_POINT('',(61.0653410018211,9.95678549590201,-62.8));
#1400=CARTESIAN_POINT('',(60.7104816228523,9.60454293578492,-62.8));
#1401=CARTESIAN_POINT('',(60.7104816228523,9.60454293578492,-63.));
#1402=CARTESIAN_POINT('',(60.7104816228523,9.60454293578492,-62.5));
#1403=CARTESIAN_POINT('',(58.8753971914357,7.7829908606178,-62.5));
#1404=CARTESIAN_POINT('',(-34.7726532345268,9.7249408230747,-0.2));
#1405=CARTESIAN_POINT('',(-34.9148645409933,9.86556779172961,-0.2));
#1406=CARTESIAN_POINT('',(-34.9148645409933,9.86556779172961,3.41523684332934E-15));
#1407=CARTESIAN_POINT('',(-34.7726532345268,9.72494082307469,-2.43945488809238E-16));
#1408=CARTESIAN_POINT('',(-35.0071631333023,9.77222934091301,-0.200000000729251));
#1409=CARTESIAN_POINT('',(-35.0531803418568,9.72569365682324,-2.41968720566624E-8));
#1410=CARTESIAN_POINT('',(-34.8649518263171,9.6316023717452,-1.33541396542905E-15));
#1411=CARTESIAN_POINT('',(-35.0600616617396,9.64209710875571,-0.232331997480041));
#1412=CARTESIAN_POINT('',(-35.078808377201,9.57509188629353,-0.0876703945726923));
#1413=CARTESIAN_POINT('',(-34.9331769406139,9.51662597608803,-0.0538866624667026));
#1414=CARTESIAN_POINT('',(-35.0585951995018,9.38030215137738,-0.343403933808031));
#1415=CARTESIAN_POINT('',(-35.0422885607992,9.33493378535752,-0.282501577247552));
#1416=CARTESIAN_POINT('',(-34.9843627622996,9.30689671773785,-0.239006556346752));
#1417=CARTESIAN_POINT('',(-35.004242147283,9.25077069623707,-0.421239637153213));
#1418=CARTESIAN_POINT('',(-34.9849965121227,9.23173947064774,-0.395798980762746));
#1419=CARTESIAN_POINT('',(-34.9669067669561,9.21385125931315,-0.368732728588854));
#1420=CARTESIAN_POINT('',(-34.9109036964642,9.15847210392589,-0.5));
#1421=CARTESIAN_POINT('',(-34.9109036964642,9.15847210392589,-0.5));
#1422=CARTESIAN_POINT('',(-34.9109036964642,9.15847210392589,-0.5));
#1423=CARTESIAN_POINT('',(-34.559621388812,9.81400023460898,-0.200000000000006));
#1424=CARTESIAN_POINT('',(-34.5593362748269,9.51400037009232,-0.200000000000006));
#1425=CARTESIAN_POINT('',(60.7101965088672,9.90454280030158,-0.2));
#1426=CARTESIAN_POINT('',(-0.00935823985549991,9.8468361268138,-0.2));
#1427=CARTESIAN_POINT('',(60.9233972502336,9.81588847185518,-0.200000000000006));
#1428=CARTESIAN_POINT('',(60.7104816228523,9.60454293578492,-0.200000000000006));
#1429=CARTESIAN_POINT('',(61.0627241829694,9.24968355681607,-0.5));
#1430=CARTESIAN_POINT('',(61.0627241829694,9.24968355681608,-0.5));
#1431=CARTESIAN_POINT('',(61.0627241829694,9.24968355681608,-0.5));
#1432=CARTESIAN_POINT('',(61.1558870277937,9.34215939629949,-0.421239637153208));
#1433=CARTESIAN_POINT('',(61.1366776014271,9.32309162379384,-0.395798980959036));
#1434=CARTESIAN_POINT('',(61.1186218898637,9.30516906050588,-0.368732728588075));
#1435=CARTESIAN_POINT('',(61.209993773742,9.4717939295036,-0.343403933808032));
#1436=CARTESIAN_POINT('',(61.1937733988286,9.42639465044821,-0.282501577247783));
#1437=CARTESIAN_POINT('',(61.1359009966781,9.39824753049066,-0.239006556346756));
#1438=CARTESIAN_POINT('',(61.2109626241983,9.73359120135582,-0.23233199748004));
#1439=CARTESIAN_POINT('',(61.2298366665769,9.66662173292378,-0.0876703945724408));
#1440=CARTESIAN_POINT('',(61.0843166226729,9.60787911806372,-0.053886662466696));
#1441=CARTESIAN_POINT('',(61.1578168413023,9.86362265107993,-0.200000000729251));
#1442=CARTESIAN_POINT('',(61.2039224198518,9.81717451867948,-2.41965401465494E-8));
#1443=CARTESIAN_POINT('',(61.0158730891975,9.72272562651969,-2.16840434497101E-16));
#1444=CARTESIAN_POINT('',(61.0653410018211,9.95678549590202,-0.2));
#1445=CARTESIAN_POINT('',(61.0653410018211,9.95678549590201,-5.14996031930615E-15));
#1446=CARTESIAN_POINT('',(60.9233972502336,9.81588847185518,-2.16840434497101E-16));
#1447=CARTESIAN_POINT('',(-34.7726532345268,9.7249408230747,-62.8));
#1448=CARTESIAN_POINT('',(-34.7726532345268,9.72494082307469,-63.));
#1449=CARTESIAN_POINT('',(-34.9148645409933,9.86556779172961,-63.));
#1450=CARTESIAN_POINT('',(-34.9148645409933,9.86556779172961,-62.8));
#1451=CARTESIAN_POINT('',(-34.8649518263172,9.6316023717451,-63.));
#1452=CARTESIAN_POINT('',(-35.0531803418571,9.7256936568233,-62.9999999758035));
#1453=CARTESIAN_POINT('',(-35.0071631333023,9.77222934091301,-62.7999999992726));
#1454=CARTESIAN_POINT('',(-34.9331769406139,9.51662597608813,-62.9461133375334));
#1455=CARTESIAN_POINT('',(-35.0788083772006,9.57509188629355,-62.9123296054276));
#1456=CARTESIAN_POINT('',(-35.0600616617396,9.64209710875571,-62.7676680025201));
#1457=CARTESIAN_POINT('',(-34.9843627622997,9.30689671773776,-62.7609934436531));
#1458=CARTESIAN_POINT('',(-35.0422885607994,9.33493378535754,-62.7174984227522));
#1459=CARTESIAN_POINT('',(-35.0585951995018,9.38030215137738,-62.6565960661918));
#1460=CARTESIAN_POINT('',(-34.9669067669552,9.21385125931235,-62.6312672714119));
#1461=CARTESIAN_POINT('',(-34.9849965119618,9.23173947106224,-62.6042010190664));
#1462=CARTESIAN_POINT('',(-35.0042421472833,9.25077069623729,-62.5787603628464));
#1463=CARTESIAN_POINT('',(-34.9109036964642,9.1584721039259,-62.5));
#1464=CARTESIAN_POINT('',(-34.9109036964642,9.15847210392589,-62.5));
#1465=CARTESIAN_POINT('',(-34.9109036964642,9.15847210392589,-62.5));
#1466=CARTESIAN_POINT('',(-34.559621388812,9.81400023460898,-62.8));
#1467=CARTESIAN_POINT('',(-34.5593362748269,9.51400037009232,-62.8));
#1468=CARTESIAN_POINT('',(60.7101965088672,9.90454280030158,-62.8));
#1469=CARTESIAN_POINT('',(-29.0747124399724,9.81921298445754,-62.8));
#1470=CARTESIAN_POINT('',(60.9233972502336,9.81588847185518,-62.8));
#1471=CARTESIAN_POINT('',(60.7104816228523,9.60454293578492,-62.8));
#1472=CARTESIAN_POINT('',(61.0653410018211,9.95678549590202,-62.8));
#1473=CARTESIAN_POINT('',(61.0653410018211,9.95678549590202,-63.));
#1474=CARTESIAN_POINT('',(60.9233972502336,9.81588847185518,-63.));
#1475=CARTESIAN_POINT('',(61.1578168413023,9.86362265108002,-62.7999999992726));
#1476=CARTESIAN_POINT('',(61.2039224198512,9.81717451867929,-62.9999999758036));
#1477=CARTESIAN_POINT('',(61.0158730891972,9.72272562651936,-63.));
#1478=CARTESIAN_POINT('',(61.2109626241983,9.73359120135563,-62.7676680025201));
#1479=CARTESIAN_POINT('',(61.2298366665773,9.66662173292347,-62.9123296054276));
#1480=CARTESIAN_POINT('',(61.0843166226729,9.60787911806368,-62.9461133375333));
#1481=CARTESIAN_POINT('',(61.209993773742,9.47179392950379,-62.6565960661918));
#1482=CARTESIAN_POINT('',(61.1937733988283,9.42639465044845,-62.7174984227522));
#1483=CARTESIAN_POINT('',(61.1359009966781,9.3982475304907,-62.7609934436532));
#1484=CARTESIAN_POINT('',(61.1558870277938,9.34215939629955,-62.5787603628467));
#1485=CARTESIAN_POINT('',(61.1366776012013,9.32309162385947,-62.6042010191581));
#1486=CARTESIAN_POINT('',(61.1186218898639,9.30516906050608,-62.6312672714118));
#1487=CARTESIAN_POINT('',(61.0627241829694,9.24968355681608,-62.5));
#1488=CARTESIAN_POINT('',(61.0627241829694,9.24968355681608,-62.5));
#1489=CARTESIAN_POINT('',(61.0627241829694,9.24968355681608,-62.5));
#1490=CARTESIAN_POINT('',(2.65,-2.675,-2.27750000000001));
#1491=CARTESIAN_POINT('',(2.65,-2.675,-3.42750000000001));
#1492=CARTESIAN_POINT('',(1.5,-2.675,-2.27750000000001));
#1493=CARTESIAN_POINT('',(2.65,-2.675,-3.42750000000001));
#1494=CARTESIAN_POINT('',(2.65,0.,-3.42750000000001));
#1495=CARTESIAN_POINT('',(2.65,0.,-2.27750000000001));
#1496=CARTESIAN_POINT('',(1.5,0.,-2.27750000000001));
#1497=CARTESIAN_POINT('',(1.5,0.,-2.27750000000001));
#1498=CARTESIAN_POINT('',(2.65,-2.675,-2.27750000000001));
#1499=CARTESIAN_POINT('',(2.65,-2.675,-2.14999999999999));
#1500=CARTESIAN_POINT('',(1.5,-2.675,-2.14999999999999));
#1501=CARTESIAN_POINT('',(2.65,-2.675,-0.999999999999991));
#1502=CARTESIAN_POINT('',(1.5,-2.675,-2.14999999999999));
#1503=CARTESIAN_POINT('',(1.5,0.,-2.14999999999999));
#1504=CARTESIAN_POINT('',(2.65,0.,-2.14999999999999));
#1505=CARTESIAN_POINT('',(2.65,0.,-0.999999999999991));
#1506=CARTESIAN_POINT('',(2.65,0.,-0.999999999999991));
#1507=CARTESIAN_POINT('',(2.65,-2.675,-2.14999999999999));
#1508=CARTESIAN_POINT('',(9.62879708268762,-2.675,-5.3492319919181));
#1509=CARTESIAN_POINT('',(9.17183456305465,-2.675,-5.55217349987219));
#1510=CARTESIAN_POINT('',(9.92990388637132,-2.675,-5.74839949156629));
#1511=CARTESIAN_POINT('',(9.17183456305465,-2.675,-5.55217349987219));
#1512=CARTESIAN_POINT('',(9.17183456305465,0.,-5.55217349987219));
#1513=CARTESIAN_POINT('',(9.62879708268762,0.,-5.3492319919181));
#1514=CARTESIAN_POINT('',(9.92990388637132,0.,-5.74839949156629));
#1515=CARTESIAN_POINT('',(9.92990388637132,-2.675,-5.74839949156629));
#1516=CARTESIAN_POINT('',(9.62879708268762,-2.675,-5.3492319919181));
#1517=CARTESIAN_POINT('',(11.35,-2.675,-4.05086499215044));
#1518=CARTESIAN_POINT('',(11.6511068036837,-2.675,-4.45003249179863));
#1519=CARTESIAN_POINT('',(11.85,-2.675,-4.05086499215044));
#1520=CARTESIAN_POINT('',(11.6511068036837,-2.675,-4.45003249179863));
#1521=CARTESIAN_POINT('',(11.6511068036837,0.,-4.45003249179863));
#1522=CARTESIAN_POINT('',(11.35,0.,-4.05086499215044));
#1523=CARTESIAN_POINT('',(11.85,0.,-4.05086499215044));
#1524=CARTESIAN_POINT('',(11.85,-2.675,-4.05086499215044));
#1525=CARTESIAN_POINT('',(11.35,-2.675,-4.05086499215044));
#1526=CARTESIAN_POINT('',(9.42734266817378,0.,-6.1275));
#1527=CARTESIAN_POINT('',(8.85,0.,-4.8275));
#1528=CARTESIAN_POINT('',(9.42734266817378,-2.675,-6.1275));
#1529=CARTESIAN_POINT('',(8.85,-2.675,-4.8275));
#1530=CARTESIAN_POINT('',(8.85,-2.675,-4.8275));
#1531=CARTESIAN_POINT('',(9.42734266817378,-2.675,-6.1275));
#1532=CARTESIAN_POINT('',(11.85,0.,-4.30000000000003));
#1533=CARTESIAN_POINT('',(11.85,-2.675,-4.30000000000003));
#1534=CARTESIAN_POINT('',(11.85,-2.675,-4.30000000000003));
#1535=CARTESIAN_POINT('',(11.85,-2.675,-3.42750000000002));
#1536=CARTESIAN_POINT('',(11.85,-2.675,-3.42750000000002));
#1537=CARTESIAN_POINT('',(11.85,0.,-3.42750000000002));
#1538=CARTESIAN_POINT('',(11.85,0.,-3.42750000000002));
#1539=CARTESIAN_POINT('',(11.85,-2.675,-3.42750000000002));
#1540=CARTESIAN_POINT('',(11.85,-2.675,-3.42750000000002));
#1541=CARTESIAN_POINT('',(1.5,0.,-3.42750000000001));
#1542=CARTESIAN_POINT('',(1.5,-2.675,-3.42750000000001));
#1543=CARTESIAN_POINT('',(1.5,-2.675,-3.42750000000001));
#1544=CARTESIAN_POINT('',(1.5,0.,-0.99999999999999));
#1545=CARTESIAN_POINT('',(1.5,-2.675,-0.99999999999999));
#1546=CARTESIAN_POINT('',(1.5,-2.675,-0.99999999999999));
#1547=CARTESIAN_POINT('',(11.85,-2.675,-1.));
#1548=CARTESIAN_POINT('',(11.85,-2.675,-1.));
#1549=CARTESIAN_POINT('',(11.85,0.,-1.));
#1550=CARTESIAN_POINT('',(11.85,0.,-1.));
#1551=CARTESIAN_POINT('',(11.85,-2.675,-1.));
#1552=CARTESIAN_POINT('',(11.85,-2.675,-1.));
#1553=CARTESIAN_POINT('',(8.85,0.,-4.8275));
#1554=CARTESIAN_POINT('',(0.,0.,-4.8275));
#1555=CARTESIAN_POINT('',(8.85,-2.675,-4.8275));
#1556=CARTESIAN_POINT('',(0.,-2.675,-4.8275));
#1557=CARTESIAN_POINT('',(0.,-2.675,-4.8275));
#1558=CARTESIAN_POINT('',(8.85,-2.675,-4.8275));
#1559=CARTESIAN_POINT('',(2.65,-2.675,2.27750000000001));
#1560=CARTESIAN_POINT('',(2.65,-2.675,3.42750000000001));
#1561=CARTESIAN_POINT('',(1.5,-2.675,2.27750000000001));
#1562=CARTESIAN_POINT('',(1.5,-2.675,2.27750000000001));
#1563=CARTESIAN_POINT('',(1.5,0.,2.27750000000001));
#1564=CARTESIAN_POINT('',(2.65,0.,2.27750000000001));
#1565=CARTESIAN_POINT('',(2.65,0.,3.42750000000001));
#1566=CARTESIAN_POINT('',(2.65,0.,3.42750000000001));
#1567=CARTESIAN_POINT('',(2.65,-2.675,2.27750000000001));
#1568=CARTESIAN_POINT('',(2.65,-2.675,2.14999999999999));
#1569=CARTESIAN_POINT('',(1.5,-2.675,2.14999999999999));
#1570=CARTESIAN_POINT('',(2.65,-2.675,0.999999999999991));
#1571=CARTESIAN_POINT('',(2.65,-2.675,0.999999999999991));
#1572=CARTESIAN_POINT('',(2.65,0.,0.999999999999991));
#1573=CARTESIAN_POINT('',(2.65,0.,2.14999999999999));
#1574=CARTESIAN_POINT('',(1.5,0.,2.14999999999999));
#1575=CARTESIAN_POINT('',(1.5,0.,2.14999999999999));
#1576=CARTESIAN_POINT('',(2.65,-2.675,2.14999999999999));
#1577=CARTESIAN_POINT('',(9.62879708268762,-2.675,5.3492319919181));
#1578=CARTESIAN_POINT('',(9.17183456305465,-2.675,5.55217349987219));
#1579=CARTESIAN_POINT('',(9.92990388637132,-2.675,5.74839949156629));
#1580=CARTESIAN_POINT('',(9.92990388637132,-2.675,5.74839949156629));
#1581=CARTESIAN_POINT('',(9.92990388637132,0.,5.74839949156629));
#1582=CARTESIAN_POINT('',(9.62879708268762,0.,5.3492319919181));
#1583=CARTESIAN_POINT('',(9.17183456305465,0.,5.55217349987219));
#1584=CARTESIAN_POINT('',(9.17183456305465,-2.675,5.55217349987219));
#1585=CARTESIAN_POINT('',(9.62879708268762,-2.675,5.3492319919181));
#1586=CARTESIAN_POINT('',(11.35,-2.675,4.05086499215044));
#1587=CARTESIAN_POINT('',(11.6511068036837,-2.675,4.45003249179863));
#1588=CARTESIAN_POINT('',(11.85,-2.675,4.05086499215044));
#1589=CARTESIAN_POINT('',(11.85,-2.675,4.05086499215044));
#1590=CARTESIAN_POINT('',(11.85,0.,4.05086499215044));
#1591=CARTESIAN_POINT('',(11.35,0.,4.05086499215044));
#1592=CARTESIAN_POINT('',(11.6511068036837,0.,4.45003249179863));
#1593=CARTESIAN_POINT('',(11.6511068036837,-2.675,4.45003249179863));
#1594=CARTESIAN_POINT('',(11.35,-2.675,4.05086499215044));
#1595=CARTESIAN_POINT('',(11.85,0.,4.30000000000003));
#1596=CARTESIAN_POINT('',(11.85,0.,3.42750000000002));
#1597=CARTESIAN_POINT('',(11.85,0.,3.42750000000002));
#1598=CARTESIAN_POINT('',(1.5,0.,3.42750000000001));
#1599=CARTESIAN_POINT('',(1.5,0.,0.99999999999999));
#1600=CARTESIAN_POINT('',(11.85,0.,1.));
#1601=CARTESIAN_POINT('',(11.85,0.,1.));
#1602=CARTESIAN_POINT('',(11.85,0.,5.6621374255883E-15));
#1603=CARTESIAN_POINT('',(0.,0.,4.8275));
#1604=CARTESIAN_POINT('',(0.,0.,4.8275));
#1605=CARTESIAN_POINT('',(8.85,0.,4.8275));
#1606=CARTESIAN_POINT('',(8.85,0.,4.8275));
#1607=CARTESIAN_POINT('',(9.42734266817378,0.,6.1275));
#1608=CARTESIAN_POINT('',(0.,0.,0.));
#1609=CARTESIAN_POINT('',(11.85,-2.675,3.42750000000002));
#1610=CARTESIAN_POINT('',(11.85,-2.675,3.42750000000002));
#1611=CARTESIAN_POINT('',(11.85,-2.675,4.30000000000003));
#1612=CARTESIAN_POINT('',(9.42734266817378,-2.675,6.1275));
#1613=CARTESIAN_POINT('',(8.85,-2.675,4.8275));
#1614=CARTESIAN_POINT('',(8.85,-2.675,4.8275));
#1615=CARTESIAN_POINT('',(0.,-2.675,4.8275));
#1616=CARTESIAN_POINT('',(0.,-2.675,4.8275));
#1617=CARTESIAN_POINT('',(11.85,-2.675,5.6621374255883E-15));
#1618=CARTESIAN_POINT('',(11.85,-2.675,1.));
#1619=CARTESIAN_POINT('',(11.85,-2.675,1.));
#1620=CARTESIAN_POINT('',(1.5,-2.675,0.99999999999999));
#1621=CARTESIAN_POINT('',(1.5,-2.675,3.42750000000001));
#1622=CARTESIAN_POINT('',(0.,-2.675,0.));
#1623=CARTESIAN_POINT('',(8.85,-2.675,4.8275));
#1624=CARTESIAN_POINT('',(9.42734266817378,-2.675,6.1275));
#1625=CARTESIAN_POINT('',(11.85,-2.675,4.30000000000003));
#1626=CARTESIAN_POINT('',(11.85,-2.675,3.42750000000002));
#1627=CARTESIAN_POINT('',(11.85,-2.675,3.42750000000002));
#1628=CARTESIAN_POINT('',(1.5,-2.675,3.42750000000001));
#1629=CARTESIAN_POINT('',(1.5,-2.675,0.99999999999999));
#1630=CARTESIAN_POINT('',(11.85,-2.675,1.));
#1631=CARTESIAN_POINT('',(11.85,-2.675,1.));
#1632=CARTESIAN_POINT('',(11.85,-2.675,5.6621374255883E-15));
#1633=CARTESIAN_POINT('',(0.,-2.675,4.8275));
#1634=CARTESIAN_POINT('',(0.,-2.675,4.8275));
#1635=CARTESIAN_POINT('',(8.85,-2.675,4.8275));
#1636=CARTESIAN_POINT('',(-22.4245156058118,10.059271427133,8.67361737988404E-16));
#1637=CARTESIAN_POINT('',(48.5599895361631,10.0592714271331,-4.33680868994202E-16));
#1638=CARTESIAN_POINT('',(48.5599895361631,10.0592714271331,-63.));
#1639=CARTESIAN_POINT('',(-22.4245156058118,10.059271427133,-63.));
#1640=MECHANICAL_DESIGN_GEOMETRIC_PRESENTATION_REPRESENTATION('',(#55),
#1642);
#1641=MECHANICAL_DESIGN_GEOMETRIC_PRESENTATION_REPRESENTATION('',(#56),
#1643);
#1642=(
GEOMETRIC_REPRESENTATION_CONTEXT(3)
GLOBAL_UNCERTAINTY_ASSIGNED_CONTEXT((#1644))
GLOBAL_UNIT_ASSIGNED_CONTEXT((#1656,#1648,#1646))
REPRESENTATION_CONTEXT('02_Wall_no_Logo','TOP_LEVEL_ASSEMBLY_PART')
);
#1643=(
GEOMETRIC_REPRESENTATION_CONTEXT(3)
GLOBAL_UNCERTAINTY_ASSIGNED_CONTEXT((#1645))
GLOBAL_UNIT_ASSIGNED_CONTEXT((#1657,#1649,#1647))
REPRESENTATION_CONTEXT('clipperV13_halb_stp','COMPONENT_PART')
);
#1644=UNCERTAINTY_MEASURE_WITH_UNIT(LENGTH_MEASURE(0.0254),#1656,
'DISTANCE_ACCURACY_VALUE','Maximum Tolerance applied to model');
#1645=UNCERTAINTY_MEASURE_WITH_UNIT(LENGTH_MEASURE(0.001),#1657,
'DISTANCE_ACCURACY_VALUE','Maximum Tolerance applied to model');
#1646=(
NAMED_UNIT(*)
SI_UNIT($,.STERADIAN.)
SOLID_ANGLE_UNIT()
);
#1647=(
NAMED_UNIT(*)
SI_UNIT($,.STERADIAN.)
SOLID_ANGLE_UNIT()
);
#1648=(
CONVERSION_BASED_UNIT('DEGREE',#1652)
NAMED_UNIT(#1650)
PLANE_ANGLE_UNIT()
);
#1649=(
CONVERSION_BASED_UNIT('DEGREE',#1653)
NAMED_UNIT(#1651)
PLANE_ANGLE_UNIT()
);
#1650=DIMENSIONAL_EXPONENTS(0.,0.,0.,0.,0.,0.,0.);
#1651=DIMENSIONAL_EXPONENTS(0.,0.,0.,0.,0.,0.,0.);
#1652=PLANE_ANGLE_MEASURE_WITH_UNIT(PLANE_ANGLE_MEASURE(0.0174532925),#1654);
#1653=PLANE_ANGLE_MEASURE_WITH_UNIT(PLANE_ANGLE_MEASURE(0.0174532925),#1655);
#1654=(
NAMED_UNIT(*)
PLANE_ANGLE_UNIT()
SI_UNIT($,.RADIAN.)
);
#1655=(
NAMED_UNIT(*)
PLANE_ANGLE_UNIT()
SI_UNIT($,.RADIAN.)
);
#1656=(
LENGTH_UNIT()
NAMED_UNIT(*)
SI_UNIT(.MILLI.,.METRE.)
);
#1657=(
LENGTH_UNIT()
NAMED_UNIT(*)
SI_UNIT(.MILLI.,.METRE.)
);
ENDSEC;
END-ISO-10303-21;
